M48
INCH,LZ
;FILE_FORMAT=2:4
;TYPE=PLATED
;Layer: PTH_Through
;EasyEDA v6.5.22, 2023-01-18 22:18:13
;b90e41fe8b0c41359a3314c958ec5ec0,7be1179030e74d40a97a3c751b95adb4,10
;Gerber Generator version 0.2
;Holesize 1 = 0.0320 inch
T01C0.0320
;Holesize 2 = 0.0350 inch
T02C0.0350
;Holesize 3 = 0.0350 inch
T03C0.0350
;Holesize 4 = 0.0360 inch
T04C0.0360
;Holesize 5 = 0.0390 inch
T05C0.0390
;Holesize 6 = 0.0430 inch
T06C0.0430
;Holesize 7 = 0.0470 inch
T07C0.0470
%
G05
G90
T01
X012706Y037300
X013494Y037300
X023394Y035250
X022606Y035250
X015406Y037250
X016194Y037250
X007444Y026150
X006656Y026150
T02
X022400Y033467
X022400Y029333
X023750Y033467
X023750Y029333
X008350Y034483
X008350Y038617
X007050Y034483
X007050Y038617
X009650Y034483
X009650Y038617
X011000Y034483
X011000Y038617
X009650Y033367
X009650Y029233
X008350Y033367
X008350Y029233
X007050Y033367
X007050Y029233
X011000Y033367
X011000Y029233
X019100Y034383
X019100Y038517
X017800Y034383
X017800Y038517
X026950Y041017
X026950Y036883
X022300Y036833
X022300Y040967
X025450Y036833
X025450Y040967
X023850Y040917
X023850Y036783
T03
X018050Y020225
X009700Y020125
X009650Y024775
T04
X007500Y020900
X007500Y022900
X025750Y022600
X025750Y020600
X013400Y034700
X015400Y034700
X016750Y021250
X009550Y021700
X008650Y023050
T05
X025050Y027949
X024050Y027949
X023050Y027949
X022050Y027949
X021050Y027949
X020050Y027949
X019050Y027949
X018050Y027949
X025050Y025051
X024050Y025051
X023050Y025051
X022050Y025051
X021050Y025051
X020050Y025051
X019050Y025051
X018050Y025051
X019050Y020225
X020050Y020225
X021050Y020225
X022050Y020225
X023050Y020225
X024050Y020225
X018050Y023375
X019050Y023375
X020050Y023375
X021050Y023375
X022050Y023375
X023050Y023375
X024050Y023375
X010700Y020125
X011700Y020125
X012700Y020125
X013700Y020125
X014700Y020125
X015700Y020125
X009700Y023275
X010700Y023275
X011700Y023275
X012700Y023275
X013700Y023275
X014700Y023275
X015700Y023275
X010650Y024775
X011650Y024775
X012650Y024775
X013650Y024775
X014650Y024775
X015650Y024775
X009650Y027925
X010650Y027925
X011650Y027925
X012650Y027925
X013650Y027925
X014650Y027925
X015650Y027925
X020900Y032775
X020900Y029625
X019450Y032825
X019450Y029675
X014500Y029439
X014500Y033061
X012800Y029439
X012800Y033061
X016200Y029439
X016200Y033061
X017850Y029489
X017850Y033111
T06
X013949Y040450
X020051Y040450
X006799Y040450
X012901Y040450
X027000Y023349
X027000Y029451
X025650Y029399
X025650Y035501
T07
X006850Y018300
X007850Y018300
X008850Y018300
X009850Y018300
X010850Y018300
X011850Y018300
X012850Y018300
X013850Y018300
X014850Y018300
X015850Y018300
X016850Y018300
X017850Y018300
X018850Y018300
X019850Y018300
X020850Y018300
X021850Y018300
X022850Y018300
X023850Y018300
X024850Y018300
X025850Y018300
M30
