M48
INCH,LZ
;FILE_FORMAT=2:4
;TYPE=PLATED
;Layer: PTH_Through_Via
;EasyEDA v6.5.22, 2023-01-18 22:18:13
;b90e41fe8b0c41359a3314c958ec5ec0,7be1179030e74d40a97a3c751b95adb4,10
;Gerber Generator version 0.2
;Holesize 1 = 0.0120 inch
T01C0.0120
%
G05
G90
T01
X010357Y027337
X011704Y026003
X010133Y026003
X010063Y022231
X016233Y030448
X016230Y024428
X010294Y022487
X019050Y022045
X018520Y028412
X008350Y025712
X017513Y022279
X017300Y021050
X019475Y026266
X015789Y031886
X015999Y032117
X015130Y025723
X018622Y040963
X019644Y019529
X008200Y024050
X007950Y024788
X006400Y023550
X006700Y023250
X024487Y031287
X026900Y033700
M30
