G04 Layer: TopSilkscreenLayer*
G04 EasyEDA v6.5.22, 2023-01-18 22:18:13*
G04 b90e41fe8b0c41359a3314c958ec5ec0,7be1179030e74d40a97a3c751b95adb4,10*
G04 Gerber Generator version 0.2*
G04 Scale: 100 percent, Rotated: No, Reflected: No *
G04 Dimensions in inches *
G04 leading zeros omitted , absolute positions ,3 integer and 6 decimal *
%FSLAX36Y36*%
%MOIN*%

%ADD10C,0.0060*%
%ADD11C,0.0079*%
%ADD12C,0.0080*%
%ADD13C,0.0100*%
%ADD14C,0.0236*%
%ADD15C,0.0098*%
%ADD16C,0.0118*%
%ADD17C,0.0150*%

%LPD*%
D10*
X926999Y4045200D02*
G01*
X926999Y4047199D01*
X929099Y4051300D01*
X931099Y4053400D01*
X935200Y4055399D01*
X943400Y4055399D01*
X947500Y4053400D01*
X949499Y4051300D01*
X951599Y4047199D01*
X951599Y4043099D01*
X949499Y4039000D01*
X945500Y4032899D01*
X925000Y4012500D01*
X953599Y4012500D01*
X969200Y4045200D02*
G01*
X969200Y4047199D01*
X971199Y4051300D01*
X973299Y4053400D01*
X977399Y4055399D01*
X985500Y4055399D01*
X989600Y4053400D01*
X991700Y4051300D01*
X993699Y4047199D01*
X993699Y4043099D01*
X991700Y4039000D01*
X987600Y4032899D01*
X967100Y4012500D01*
X995799Y4012500D01*
X1046099Y4063600D02*
G01*
X1009300Y3998099D01*
X1059600Y4047199D02*
G01*
X1063699Y4049299D01*
X1069799Y4055399D01*
X1069799Y4012500D01*
X1083299Y4055399D02*
G01*
X1093500Y4012500D01*
X1103800Y4055399D02*
G01*
X1093500Y4012500D01*
X1103800Y4055399D02*
G01*
X1113999Y4012500D01*
X1124200Y4055399D02*
G01*
X1113999Y4012500D01*
X1631999Y4035200D02*
G01*
X1631999Y4037199D01*
X1634099Y4041300D01*
X1636099Y4043400D01*
X1640200Y4045399D01*
X1648400Y4045399D01*
X1652500Y4043400D01*
X1654499Y4041300D01*
X1656599Y4037199D01*
X1656599Y4033099D01*
X1654499Y4029000D01*
X1650500Y4022899D01*
X1630000Y4002500D01*
X1658599Y4002500D01*
X1674200Y4035200D02*
G01*
X1674200Y4037199D01*
X1676199Y4041300D01*
X1678299Y4043400D01*
X1682399Y4045399D01*
X1690500Y4045399D01*
X1694600Y4043400D01*
X1696700Y4041300D01*
X1698699Y4037199D01*
X1698699Y4033099D01*
X1696700Y4029000D01*
X1692600Y4022899D01*
X1672100Y4002500D01*
X1700799Y4002500D01*
X1751099Y4053600D02*
G01*
X1714300Y3988099D01*
X1764600Y4037199D02*
G01*
X1768699Y4039299D01*
X1774799Y4045399D01*
X1774799Y4002500D01*
X1788299Y4045399D02*
G01*
X1798500Y4002500D01*
X1808800Y4045399D02*
G01*
X1798500Y4002500D01*
X1808800Y4045399D02*
G01*
X1818999Y4002500D01*
X1829200Y4045399D02*
G01*
X1818999Y4002500D01*
X2699799Y2546999D02*
G01*
X2697799Y2546999D01*
X2693699Y2549099D01*
X2691599Y2551100D01*
X2689600Y2555200D01*
X2689600Y2563400D01*
X2691599Y2567500D01*
X2693699Y2569499D01*
X2697799Y2571599D01*
X2701899Y2571599D01*
X2706000Y2569499D01*
X2712100Y2565500D01*
X2732500Y2545000D01*
X2732500Y2573600D01*
X2699799Y2589200D02*
G01*
X2697799Y2589200D01*
X2693699Y2591199D01*
X2691599Y2593299D01*
X2689600Y2597399D01*
X2689600Y2605500D01*
X2691599Y2609600D01*
X2693699Y2611700D01*
X2697799Y2613699D01*
X2701899Y2613699D01*
X2706000Y2611700D01*
X2712100Y2607600D01*
X2732500Y2587100D01*
X2732500Y2615799D01*
X2681400Y2666100D02*
G01*
X2746899Y2629299D01*
X2697799Y2679600D02*
G01*
X2695699Y2683699D01*
X2689600Y2689800D01*
X2732500Y2689800D01*
X2689600Y2703299D02*
G01*
X2732500Y2713499D01*
X2689600Y2723800D02*
G01*
X2732500Y2713499D01*
X2689600Y2723800D02*
G01*
X2732500Y2734000D01*
X2689600Y2744200D02*
G01*
X2732500Y2734000D01*
X2574799Y3141999D02*
G01*
X2572799Y3141999D01*
X2568699Y3144099D01*
X2566599Y3146100D01*
X2564600Y3150200D01*
X2564600Y3158400D01*
X2566599Y3162500D01*
X2568699Y3164499D01*
X2572799Y3166599D01*
X2576899Y3166599D01*
X2581000Y3164499D01*
X2587100Y3160500D01*
X2607500Y3140000D01*
X2607500Y3168600D01*
X2574799Y3184200D02*
G01*
X2572799Y3184200D01*
X2568699Y3186199D01*
X2566599Y3188299D01*
X2564600Y3192399D01*
X2564600Y3200500D01*
X2566599Y3204600D01*
X2568699Y3206700D01*
X2572799Y3208699D01*
X2576899Y3208699D01*
X2581000Y3206700D01*
X2587100Y3202600D01*
X2607500Y3182100D01*
X2607500Y3210799D01*
X2556400Y3261100D02*
G01*
X2621899Y3224299D01*
X2572799Y3274600D02*
G01*
X2570699Y3278699D01*
X2564600Y3284800D01*
X2607500Y3284800D01*
X2564600Y3298299D02*
G01*
X2607500Y3308499D01*
X2564600Y3318800D02*
G01*
X2607500Y3308499D01*
X2564600Y3318800D02*
G01*
X2607500Y3329000D01*
X2564600Y3339200D02*
G01*
X2607500Y3329000D01*
X1155000Y2670399D02*
G01*
X1155000Y2627500D01*
X1155000Y2670399D02*
G01*
X1171400Y2627500D01*
X1187700Y2670399D02*
G01*
X1171400Y2627500D01*
X1187700Y2670399D02*
G01*
X1187700Y2627500D01*
X1231899Y2660200D02*
G01*
X1229899Y2664299D01*
X1225799Y2668400D01*
X1221700Y2670399D01*
X1213500Y2670399D01*
X1209399Y2668400D01*
X1205299Y2664299D01*
X1203299Y2660200D01*
X1201199Y2654000D01*
X1201199Y2643800D01*
X1203299Y2637700D01*
X1205299Y2633600D01*
X1209399Y2629499D01*
X1213500Y2627500D01*
X1221700Y2627500D01*
X1225799Y2629499D01*
X1229899Y2633600D01*
X1231899Y2637700D01*
X1245399Y2662199D02*
G01*
X1249499Y2664299D01*
X1255600Y2670399D01*
X1255600Y2627500D01*
X1289600Y2670399D02*
G01*
X1269099Y2641799D01*
X1299799Y2641799D01*
X1289600Y2670399D02*
G01*
X1289600Y2627500D01*
X1337899Y2670399D02*
G01*
X1317399Y2670399D01*
X1315399Y2651999D01*
X1317399Y2654000D01*
X1323500Y2656100D01*
X1329700Y2656100D01*
X1335799Y2654000D01*
X1339899Y2650000D01*
X1341999Y2643800D01*
X1341999Y2639699D01*
X1339899Y2633600D01*
X1335799Y2629499D01*
X1329700Y2627500D01*
X1323500Y2627500D01*
X1317399Y2629499D01*
X1315399Y2631500D01*
X1313299Y2635599D01*
X1365699Y2670399D02*
G01*
X1359499Y2668400D01*
X1357500Y2664299D01*
X1357500Y2660200D01*
X1359499Y2656100D01*
X1363599Y2654000D01*
X1371800Y2651999D01*
X1378000Y2650000D01*
X1381999Y2645900D01*
X1384099Y2641799D01*
X1384099Y2635599D01*
X1381999Y2631500D01*
X1380000Y2629499D01*
X1373900Y2627500D01*
X1365699Y2627500D01*
X1359499Y2629499D01*
X1357500Y2631500D01*
X1355500Y2635599D01*
X1355500Y2641799D01*
X1357500Y2645900D01*
X1361599Y2650000D01*
X1367700Y2651999D01*
X1375900Y2654000D01*
X1380000Y2656100D01*
X1381999Y2660200D01*
X1381999Y2664299D01*
X1380000Y2668400D01*
X1373900Y2670399D01*
X1365699Y2670399D01*
X1418000Y2670399D02*
G01*
X1397600Y2641799D01*
X1428299Y2641799D01*
X1418000Y2670399D02*
G01*
X1418000Y2627500D01*
X1243599Y2205399D02*
G01*
X1223199Y2162500D01*
X1215000Y2205399D02*
G01*
X1243599Y2205399D01*
X1277600Y2205399D02*
G01*
X1257100Y2176799D01*
X1287799Y2176799D01*
X1277600Y2205399D02*
G01*
X1277600Y2162500D01*
X1301300Y2205399D02*
G01*
X1301300Y2162500D01*
X1301300Y2162500D02*
G01*
X1325900Y2162500D01*
X1368000Y2199299D02*
G01*
X1363900Y2203400D01*
X1357799Y2205399D01*
X1349600Y2205399D01*
X1343500Y2203400D01*
X1339399Y2199299D01*
X1339399Y2195200D01*
X1341400Y2191100D01*
X1343500Y2189000D01*
X1347500Y2186999D01*
X1359799Y2182899D01*
X1363900Y2180900D01*
X1366000Y2178800D01*
X1368000Y2174699D01*
X1368000Y2168600D01*
X1363900Y2164499D01*
X1357799Y2162500D01*
X1349600Y2162500D01*
X1343500Y2164499D01*
X1339399Y2168600D01*
X1381499Y2197199D02*
G01*
X1385600Y2199299D01*
X1391700Y2205399D01*
X1391700Y2162500D01*
X1433900Y2205399D02*
G01*
X1413400Y2162500D01*
X1405200Y2205399D02*
G01*
X1433900Y2205399D01*
X2055000Y2675399D02*
G01*
X2055000Y2644699D01*
X2056999Y2638600D01*
X2061099Y2634499D01*
X2067299Y2632500D01*
X2071400Y2632500D01*
X2077500Y2634499D01*
X2081599Y2638600D01*
X2083599Y2644699D01*
X2083599Y2675399D01*
X2097100Y2675399D02*
G01*
X2097100Y2632500D01*
X2097100Y2632500D02*
G01*
X2121700Y2632500D01*
X2135200Y2675399D02*
G01*
X2135200Y2632500D01*
X2135200Y2675399D02*
G01*
X2163800Y2632500D01*
X2163800Y2675399D02*
G01*
X2163800Y2632500D01*
X2179399Y2665200D02*
G01*
X2179399Y2667199D01*
X2181400Y2671300D01*
X2183500Y2673400D01*
X2187500Y2675399D01*
X2195699Y2675399D01*
X2199799Y2673400D01*
X2201899Y2671300D01*
X2203900Y2667199D01*
X2203900Y2663099D01*
X2201899Y2659000D01*
X2197799Y2652899D01*
X2177299Y2632500D01*
X2206000Y2632500D01*
X2231700Y2675399D02*
G01*
X2225600Y2673400D01*
X2221499Y2667199D01*
X2219499Y2656999D01*
X2219499Y2650900D01*
X2221499Y2640599D01*
X2225600Y2634499D01*
X2231700Y2632500D01*
X2235799Y2632500D01*
X2241999Y2634499D01*
X2246000Y2640599D01*
X2248100Y2650900D01*
X2248100Y2656999D01*
X2246000Y2667199D01*
X2241999Y2673400D01*
X2235799Y2675399D01*
X2231700Y2675399D01*
X2273900Y2675399D02*
G01*
X2267700Y2673400D01*
X2263599Y2667199D01*
X2261599Y2656999D01*
X2261599Y2650900D01*
X2263599Y2640599D01*
X2267700Y2634499D01*
X2273900Y2632500D01*
X2278000Y2632500D01*
X2284099Y2634499D01*
X2288199Y2640599D01*
X2290200Y2650900D01*
X2290200Y2656999D01*
X2288199Y2667199D01*
X2284099Y2673400D01*
X2278000Y2675399D01*
X2273900Y2675399D01*
X2307799Y2675399D02*
G01*
X2330299Y2675399D01*
X2318000Y2659000D01*
X2324200Y2659000D01*
X2328299Y2656999D01*
X2330299Y2655000D01*
X2332399Y2648800D01*
X2332399Y2644699D01*
X2330299Y2638600D01*
X2326199Y2634499D01*
X2320100Y2632500D01*
X2313999Y2632500D01*
X2307799Y2634499D01*
X2305799Y2636500D01*
X2303699Y2640599D01*
X2362200Y2675399D02*
G01*
X2345900Y2632500D01*
X2362200Y2675399D02*
G01*
X2378599Y2632500D01*
X2351999Y2646799D02*
G01*
X2372500Y2646799D01*
X2133599Y2205399D02*
G01*
X2113199Y2162500D01*
X2105000Y2205399D02*
G01*
X2133599Y2205399D01*
X2167600Y2205399D02*
G01*
X2147100Y2176799D01*
X2177799Y2176799D01*
X2167600Y2205399D02*
G01*
X2167600Y2162500D01*
X2191300Y2205399D02*
G01*
X2191300Y2162500D01*
X2191300Y2162500D02*
G01*
X2215900Y2162500D01*
X2258000Y2199299D02*
G01*
X2253900Y2203400D01*
X2247799Y2205399D01*
X2239600Y2205399D01*
X2233500Y2203400D01*
X2229399Y2199299D01*
X2229399Y2195200D01*
X2231400Y2191100D01*
X2233500Y2189000D01*
X2237500Y2186999D01*
X2249799Y2182899D01*
X2253900Y2180900D01*
X2256000Y2178800D01*
X2258000Y2174699D01*
X2258000Y2168600D01*
X2253900Y2164499D01*
X2247799Y2162500D01*
X2239600Y2162500D01*
X2233500Y2164499D01*
X2229399Y2168600D01*
X2283800Y2205399D02*
G01*
X2277600Y2203400D01*
X2273500Y2197199D01*
X2271499Y2186999D01*
X2271499Y2180900D01*
X2273500Y2170599D01*
X2277600Y2164499D01*
X2283800Y2162500D01*
X2287899Y2162500D01*
X2293999Y2164499D01*
X2298100Y2170599D01*
X2300100Y2180900D01*
X2300100Y2186999D01*
X2298100Y2197199D01*
X2293999Y2203400D01*
X2287899Y2205399D01*
X2283800Y2205399D01*
X2323900Y2205399D02*
G01*
X2317700Y2203400D01*
X2315699Y2199299D01*
X2315699Y2195200D01*
X2317700Y2191100D01*
X2321800Y2189000D01*
X2330000Y2186999D01*
X2336099Y2185000D01*
X2340200Y2180900D01*
X2342299Y2176799D01*
X2342299Y2170599D01*
X2340200Y2166500D01*
X2338199Y2164499D01*
X2331999Y2162500D01*
X2323900Y2162500D01*
X2317700Y2164499D01*
X2315699Y2166500D01*
X2313599Y2170599D01*
X2313599Y2176799D01*
X2315699Y2180900D01*
X2319799Y2185000D01*
X2325900Y2186999D01*
X2334099Y2189000D01*
X2338199Y2191100D01*
X2340200Y2195200D01*
X2340200Y2199299D01*
X2338199Y2203400D01*
X2331999Y2205399D01*
X2323900Y2205399D01*
X684600Y3620500D02*
G01*
X713200Y3600000D01*
X713200Y3630700D01*
X684600Y3620500D02*
G01*
X727500Y3620500D01*
X684600Y3672800D02*
G01*
X727500Y3652399D01*
X684600Y3644200D02*
G01*
X684600Y3672800D01*
X684600Y3698600D02*
G01*
X686599Y3692500D01*
X692800Y3688400D01*
X703000Y3686300D01*
X709099Y3686300D01*
X719400Y3688400D01*
X725500Y3692500D01*
X727500Y3698600D01*
X727500Y3702700D01*
X725500Y3708800D01*
X719400Y3712899D01*
X709099Y3715000D01*
X703000Y3715000D01*
X692800Y3712899D01*
X686599Y3708800D01*
X684600Y3702700D01*
X684600Y3698600D01*
X814600Y3610500D02*
G01*
X843199Y3590000D01*
X843199Y3620700D01*
X814600Y3610500D02*
G01*
X857500Y3610500D01*
X814600Y3662800D02*
G01*
X857500Y3642399D01*
X814600Y3634200D02*
G01*
X814600Y3662800D01*
X814600Y3688600D02*
G01*
X816599Y3682500D01*
X822799Y3678400D01*
X833000Y3676300D01*
X839099Y3676300D01*
X849399Y3678400D01*
X855500Y3682500D01*
X857500Y3688600D01*
X857500Y3692700D01*
X855500Y3698800D01*
X849399Y3702899D01*
X839099Y3705000D01*
X833000Y3705000D01*
X822799Y3702899D01*
X816599Y3698800D01*
X814600Y3692700D01*
X814600Y3688600D01*
X944600Y3610500D02*
G01*
X973199Y3590000D01*
X973199Y3620700D01*
X944600Y3610500D02*
G01*
X987500Y3610500D01*
X944600Y3662800D02*
G01*
X987500Y3642399D01*
X944600Y3634200D02*
G01*
X944600Y3662800D01*
X944600Y3688600D02*
G01*
X946599Y3682500D01*
X952799Y3678400D01*
X963000Y3676300D01*
X969099Y3676300D01*
X979399Y3678400D01*
X985500Y3682500D01*
X987500Y3688600D01*
X987500Y3692700D01*
X985500Y3698800D01*
X979399Y3702899D01*
X969099Y3705000D01*
X963000Y3705000D01*
X952799Y3702899D01*
X946599Y3698800D01*
X944600Y3692700D01*
X944600Y3688600D01*
X1084600Y3610500D02*
G01*
X1113199Y3590000D01*
X1113199Y3620700D01*
X1084600Y3610500D02*
G01*
X1127500Y3610500D01*
X1084600Y3662800D02*
G01*
X1127500Y3642399D01*
X1084600Y3634200D02*
G01*
X1084600Y3662800D01*
X1084600Y3688600D02*
G01*
X1086599Y3682500D01*
X1092799Y3678400D01*
X1103000Y3676300D01*
X1109099Y3676300D01*
X1119399Y3678400D01*
X1125500Y3682500D01*
X1127500Y3688600D01*
X1127500Y3692700D01*
X1125500Y3698800D01*
X1119399Y3702899D01*
X1109099Y3705000D01*
X1103000Y3705000D01*
X1092799Y3702899D01*
X1086599Y3698800D01*
X1084600Y3692700D01*
X1084600Y3688600D01*
X1385000Y3482199D02*
G01*
X1389099Y3484299D01*
X1395200Y3490399D01*
X1395200Y3447500D01*
X1421000Y3490399D02*
G01*
X1414899Y3488400D01*
X1410799Y3482199D01*
X1408699Y3471999D01*
X1408699Y3465900D01*
X1410799Y3455599D01*
X1414899Y3449499D01*
X1421000Y3447500D01*
X1425100Y3447500D01*
X1431199Y3449499D01*
X1435299Y3455599D01*
X1437399Y3465900D01*
X1437399Y3471999D01*
X1435299Y3482199D01*
X1431199Y3488400D01*
X1425100Y3490399D01*
X1421000Y3490399D01*
X1455000Y3490399D02*
G01*
X1477500Y3490399D01*
X1465200Y3474000D01*
X1471300Y3474000D01*
X1475399Y3471999D01*
X1477500Y3470000D01*
X1479499Y3463800D01*
X1479499Y3459699D01*
X1477500Y3453600D01*
X1473400Y3449499D01*
X1467200Y3447500D01*
X1461099Y3447500D01*
X1455000Y3449499D01*
X1452899Y3451500D01*
X1450900Y3455599D01*
X737800Y2140000D02*
G01*
X735700Y2144099D01*
X729600Y2150200D01*
X772500Y2150200D01*
X729600Y2175999D02*
G01*
X731599Y2169899D01*
X737800Y2165799D01*
X748000Y2163699D01*
X754099Y2163699D01*
X764399Y2165799D01*
X770500Y2169899D01*
X772500Y2175999D01*
X772500Y2180100D01*
X770500Y2186199D01*
X764399Y2190300D01*
X754099Y2192399D01*
X748000Y2192399D01*
X737800Y2190300D01*
X731599Y2186199D01*
X729600Y2180100D01*
X729600Y2175999D01*
X729600Y2210000D02*
G01*
X729600Y2232500D01*
X745999Y2220200D01*
X745999Y2226300D01*
X748000Y2230399D01*
X750000Y2232500D01*
X756199Y2234499D01*
X760299Y2234499D01*
X766400Y2232500D01*
X770500Y2228400D01*
X772500Y2222199D01*
X772500Y2216100D01*
X770500Y2210000D01*
X768500Y2207899D01*
X764399Y2205900D01*
X2562799Y2115000D02*
G01*
X2560699Y2119099D01*
X2554600Y2125200D01*
X2597500Y2125200D01*
X2554600Y2150999D02*
G01*
X2556599Y2144899D01*
X2562799Y2140799D01*
X2573000Y2138699D01*
X2579099Y2138699D01*
X2589399Y2140799D01*
X2595500Y2144899D01*
X2597500Y2150999D01*
X2597500Y2155100D01*
X2595500Y2161199D01*
X2589399Y2165300D01*
X2579099Y2167399D01*
X2573000Y2167399D01*
X2562799Y2165300D01*
X2556599Y2161199D01*
X2554600Y2155100D01*
X2554600Y2150999D01*
X2554600Y2185000D02*
G01*
X2554600Y2207500D01*
X2571000Y2195200D01*
X2571000Y2201300D01*
X2573000Y2205399D01*
X2575000Y2207500D01*
X2581199Y2209499D01*
X2585299Y2209499D01*
X2591400Y2207500D01*
X2595500Y2203400D01*
X2597500Y2197199D01*
X2597500Y2191100D01*
X2595500Y2185000D01*
X2593500Y2182899D01*
X2589399Y2180900D01*
X1759600Y3615500D02*
G01*
X1788199Y3595000D01*
X1788199Y3625700D01*
X1759600Y3615500D02*
G01*
X1802500Y3615500D01*
X1792299Y3641199D02*
G01*
X1794399Y3639200D01*
X1796400Y3641199D01*
X1794399Y3643299D01*
X1792299Y3641199D01*
X1759600Y3685399D02*
G01*
X1802500Y3665000D01*
X1759600Y3656799D02*
G01*
X1759600Y3685399D01*
X1759600Y3698899D02*
G01*
X1802500Y3698899D01*
X1773900Y3719400D02*
G01*
X1794399Y3698899D01*
X1786199Y3707100D02*
G01*
X1802500Y3721399D01*
X1889600Y3610500D02*
G01*
X1918199Y3590000D01*
X1918199Y3620700D01*
X1889600Y3610500D02*
G01*
X1932500Y3610500D01*
X1922299Y3636199D02*
G01*
X1924399Y3634200D01*
X1926400Y3636199D01*
X1924399Y3638299D01*
X1922299Y3636199D01*
X1889600Y3680399D02*
G01*
X1932500Y3660000D01*
X1889600Y3651799D02*
G01*
X1889600Y3680399D01*
X1889600Y3693899D02*
G01*
X1932500Y3693899D01*
X1903900Y3714400D02*
G01*
X1924399Y3693899D01*
X1916199Y3702100D02*
G01*
X1932500Y3716399D01*
X2679799Y3861999D02*
G01*
X2677799Y3861999D01*
X2673699Y3864099D01*
X2671599Y3866100D01*
X2669600Y3870200D01*
X2669600Y3878400D01*
X2671599Y3882500D01*
X2673699Y3884499D01*
X2677799Y3886599D01*
X2681899Y3886599D01*
X2686000Y3884499D01*
X2692100Y3880500D01*
X2712500Y3860000D01*
X2712500Y3888600D01*
X2679799Y3904200D02*
G01*
X2677799Y3904200D01*
X2673699Y3906199D01*
X2671599Y3908299D01*
X2669600Y3912399D01*
X2669600Y3920500D01*
X2671599Y3924600D01*
X2673699Y3926700D01*
X2677799Y3928699D01*
X2681899Y3928699D01*
X2686000Y3926700D01*
X2692100Y3922600D01*
X2712500Y3902100D01*
X2712500Y3930799D01*
X2669600Y3944299D02*
G01*
X2712500Y3944299D01*
X2683900Y3964699D02*
G01*
X2704399Y3944299D01*
X2696199Y3952500D02*
G01*
X2712500Y3966799D01*
X2529799Y3856999D02*
G01*
X2527799Y3856999D01*
X2523699Y3859099D01*
X2521599Y3861100D01*
X2519600Y3865200D01*
X2519600Y3873400D01*
X2521599Y3877500D01*
X2523699Y3879499D01*
X2527799Y3881599D01*
X2531899Y3881599D01*
X2536000Y3879499D01*
X2542100Y3875500D01*
X2562500Y3855000D01*
X2562500Y3883600D01*
X2529799Y3899200D02*
G01*
X2527799Y3899200D01*
X2523699Y3901199D01*
X2521599Y3903299D01*
X2519600Y3907399D01*
X2519600Y3915500D01*
X2521599Y3919600D01*
X2523699Y3921700D01*
X2527799Y3923699D01*
X2531899Y3923699D01*
X2536000Y3921700D01*
X2542100Y3917600D01*
X2562500Y3897100D01*
X2562500Y3925799D01*
X2519600Y3939299D02*
G01*
X2562500Y3939299D01*
X2533900Y3959699D02*
G01*
X2554399Y3939299D01*
X2546199Y3947500D02*
G01*
X2562500Y3961799D01*
X2384799Y3836999D02*
G01*
X2382799Y3836999D01*
X2378699Y3839099D01*
X2376599Y3841100D01*
X2374600Y3845200D01*
X2374600Y3853400D01*
X2376599Y3857500D01*
X2378699Y3859499D01*
X2382799Y3861599D01*
X2386899Y3861599D01*
X2391000Y3859499D01*
X2397100Y3855500D01*
X2417500Y3835000D01*
X2417500Y3863600D01*
X2384799Y3879200D02*
G01*
X2382799Y3879200D01*
X2378699Y3881199D01*
X2376599Y3883299D01*
X2374600Y3887399D01*
X2374600Y3895500D01*
X2376599Y3899600D01*
X2378699Y3901700D01*
X2382799Y3903699D01*
X2386899Y3903699D01*
X2391000Y3901700D01*
X2397100Y3897600D01*
X2417500Y3877100D01*
X2417500Y3905799D01*
X2374600Y3919299D02*
G01*
X2417500Y3919299D01*
X2388900Y3939699D02*
G01*
X2409399Y3919299D01*
X2401199Y3927500D02*
G01*
X2417500Y3941799D01*
X2214799Y3841999D02*
G01*
X2212799Y3841999D01*
X2208699Y3844099D01*
X2206599Y3846100D01*
X2204600Y3850200D01*
X2204600Y3858400D01*
X2206599Y3862500D01*
X2208699Y3864499D01*
X2212799Y3866599D01*
X2216899Y3866599D01*
X2221000Y3864499D01*
X2227100Y3860500D01*
X2247500Y3840000D01*
X2247500Y3868600D01*
X2214799Y3884200D02*
G01*
X2212799Y3884200D01*
X2208699Y3886199D01*
X2206599Y3888299D01*
X2204600Y3892399D01*
X2204600Y3900500D01*
X2206599Y3904600D01*
X2208699Y3906700D01*
X2212799Y3908699D01*
X2216899Y3908699D01*
X2221000Y3906700D01*
X2227100Y3902600D01*
X2247500Y3882100D01*
X2247500Y3910799D01*
X2204600Y3924299D02*
G01*
X2247500Y3924299D01*
X2218900Y3944699D02*
G01*
X2239399Y3924299D01*
X2231199Y3932500D02*
G01*
X2247500Y3946799D01*
X697800Y3100000D02*
G01*
X695700Y3104099D01*
X689600Y3110200D01*
X732500Y3110200D01*
X689600Y3123699D02*
G01*
X732500Y3123699D01*
X689600Y3152399D02*
G01*
X718200Y3123699D01*
X708000Y3134000D02*
G01*
X732500Y3152399D01*
X817799Y3100000D02*
G01*
X815699Y3104099D01*
X809600Y3110200D01*
X852500Y3110200D01*
X809600Y3123699D02*
G01*
X852500Y3123699D01*
X809600Y3152399D02*
G01*
X838199Y3123699D01*
X828000Y3134000D02*
G01*
X852500Y3152399D01*
X952799Y3100000D02*
G01*
X950699Y3104099D01*
X944600Y3110200D01*
X987500Y3110200D01*
X944600Y3123699D02*
G01*
X987500Y3123699D01*
X944600Y3152399D02*
G01*
X973199Y3123699D01*
X963000Y3134000D02*
G01*
X987500Y3152399D01*
X1087799Y3105000D02*
G01*
X1085699Y3109099D01*
X1079600Y3115200D01*
X1122500Y3115200D01*
X1079600Y3128699D02*
G01*
X1122500Y3128699D01*
X1079600Y3157399D02*
G01*
X1108199Y3128699D01*
X1098000Y3139000D02*
G01*
X1122500Y3157399D01*
X1425000Y3382199D02*
G01*
X1429099Y3384299D01*
X1435200Y3390399D01*
X1435200Y3347500D01*
X1448699Y3390399D02*
G01*
X1448699Y3347500D01*
X1448699Y3390399D02*
G01*
X1477399Y3347500D01*
X1477399Y3390399D02*
G01*
X1477399Y3347500D01*
X1511300Y3390399D02*
G01*
X1490900Y3361799D01*
X1521499Y3361799D01*
X1511300Y3390399D02*
G01*
X1511300Y3347500D01*
X1547299Y3390399D02*
G01*
X1541199Y3388400D01*
X1537100Y3382199D01*
X1535000Y3371999D01*
X1535000Y3365900D01*
X1537100Y3355599D01*
X1541199Y3349499D01*
X1547299Y3347500D01*
X1551400Y3347500D01*
X1557500Y3349499D01*
X1561599Y3355599D01*
X1563699Y3365900D01*
X1563699Y3371999D01*
X1561599Y3382199D01*
X1557500Y3388400D01*
X1551400Y3390399D01*
X1547299Y3390399D01*
X1589499Y3390399D02*
G01*
X1583299Y3388400D01*
X1579200Y3382199D01*
X1577200Y3371999D01*
X1577200Y3365900D01*
X1579200Y3355599D01*
X1583299Y3349499D01*
X1589499Y3347500D01*
X1593500Y3347500D01*
X1599700Y3349499D01*
X1603800Y3355599D01*
X1605799Y3365900D01*
X1605799Y3371999D01*
X1603800Y3382199D01*
X1599700Y3388400D01*
X1593500Y3390399D01*
X1589499Y3390399D01*
X1619300Y3382199D02*
G01*
X1623400Y3384299D01*
X1629499Y3390399D01*
X1629499Y3347500D01*
X1915000Y2897199D02*
G01*
X1919099Y2899299D01*
X1925200Y2905399D01*
X1925200Y2862500D01*
X1938699Y2905399D02*
G01*
X1938699Y2862500D01*
X1938699Y2905399D02*
G01*
X1967399Y2862500D01*
X1967399Y2905399D02*
G01*
X1967399Y2862500D01*
X2001300Y2905399D02*
G01*
X1980900Y2876799D01*
X2011499Y2876799D01*
X2001300Y2905399D02*
G01*
X2001300Y2862500D01*
X2053699Y2905399D02*
G01*
X2033199Y2862500D01*
X2025000Y2905399D02*
G01*
X2053699Y2905399D01*
X2071300Y2905399D02*
G01*
X2093800Y2905399D01*
X2081499Y2889000D01*
X2087600Y2889000D01*
X2091700Y2886999D01*
X2093800Y2885000D01*
X2095799Y2878800D01*
X2095799Y2874699D01*
X2093800Y2868600D01*
X2089700Y2864499D01*
X2083500Y2862500D01*
X2077399Y2862500D01*
X2071300Y2864499D01*
X2069200Y2866500D01*
X2067200Y2870599D01*
X2113400Y2905399D02*
G01*
X2135900Y2905399D01*
X2123599Y2889000D01*
X2129799Y2889000D01*
X2133900Y2886999D01*
X2135900Y2885000D01*
X2138000Y2878800D01*
X2138000Y2874699D01*
X2135900Y2868600D01*
X2131800Y2864499D01*
X2125699Y2862500D01*
X2119499Y2862500D01*
X2113400Y2864499D01*
X2111400Y2866500D01*
X2109300Y2870599D01*
X1254300Y1950399D02*
G01*
X1254300Y1907500D01*
X1240000Y1950399D02*
G01*
X1268599Y1950399D01*
X1298500Y1950399D02*
G01*
X1282100Y1907500D01*
X1298500Y1950399D02*
G01*
X1314899Y1907500D01*
X1288299Y1921799D02*
G01*
X1308699Y1921799D01*
X1328400Y1950399D02*
G01*
X1328400Y1907500D01*
X1356199Y1950399D02*
G01*
X1356199Y1907500D01*
X1341899Y1950399D02*
G01*
X1370500Y1950399D01*
X1396300Y1950399D02*
G01*
X1392200Y1948400D01*
X1388100Y1944299D01*
X1386000Y1940199D01*
X1383999Y1934000D01*
X1383999Y1923800D01*
X1386000Y1917699D01*
X1388100Y1913600D01*
X1392200Y1909499D01*
X1396300Y1907500D01*
X1404499Y1907500D01*
X1408500Y1909499D01*
X1412600Y1913600D01*
X1414700Y1917699D01*
X1416700Y1923800D01*
X1416700Y1934000D01*
X1414700Y1940199D01*
X1412600Y1944299D01*
X1408500Y1948400D01*
X1404499Y1950399D01*
X1396300Y1950399D01*
X1461700Y1950399D02*
G01*
X1461700Y1907500D01*
X1461700Y1950399D02*
G01*
X1480100Y1950399D01*
X1486300Y1948400D01*
X1488299Y1946300D01*
X1490399Y1942199D01*
X1490399Y1936100D01*
X1488299Y1931999D01*
X1486300Y1930000D01*
X1480100Y1927899D01*
X1461700Y1927899D01*
X1534499Y1940199D02*
G01*
X1532500Y1944299D01*
X1528400Y1948400D01*
X1524300Y1950399D01*
X1516099Y1950399D01*
X1511999Y1948400D01*
X1508000Y1944299D01*
X1505900Y1940199D01*
X1503900Y1934000D01*
X1503900Y1923800D01*
X1505900Y1917699D01*
X1508000Y1913600D01*
X1511999Y1909499D01*
X1516099Y1907500D01*
X1524300Y1907500D01*
X1528400Y1909499D01*
X1532500Y1913600D01*
X1534499Y1917699D01*
X1560299Y1950399D02*
G01*
X1554200Y1948400D01*
X1550100Y1942199D01*
X1548000Y1931999D01*
X1548000Y1925900D01*
X1550100Y1915599D01*
X1554200Y1909499D01*
X1560299Y1907500D01*
X1564399Y1907500D01*
X1570500Y1909499D01*
X1574600Y1915599D01*
X1576700Y1925900D01*
X1576700Y1931999D01*
X1574600Y1942199D01*
X1570500Y1948400D01*
X1564399Y1950399D01*
X1560299Y1950399D01*
X1594300Y1950399D02*
G01*
X1616800Y1950399D01*
X1604499Y1934000D01*
X1610600Y1934000D01*
X1614700Y1931999D01*
X1616800Y1930000D01*
X1618800Y1923800D01*
X1618800Y1919699D01*
X1616800Y1913600D01*
X1612700Y1909499D01*
X1606499Y1907500D01*
X1600399Y1907500D01*
X1594300Y1909499D01*
X1592200Y1911500D01*
X1590200Y1915599D01*
X1644600Y1950399D02*
G01*
X1638500Y1948400D01*
X1634399Y1942199D01*
X1632299Y1931999D01*
X1632299Y1925900D01*
X1634399Y1915599D01*
X1638500Y1909499D01*
X1644600Y1907500D01*
X1648699Y1907500D01*
X1654799Y1909499D01*
X1658900Y1915599D01*
X1661000Y1925900D01*
X1661000Y1931999D01*
X1658900Y1942199D01*
X1654799Y1948400D01*
X1648699Y1950399D01*
X1644600Y1950399D01*
X1706000Y1950399D02*
G01*
X1706000Y1907500D01*
X1706000Y1950399D02*
G01*
X1724399Y1950399D01*
X1730500Y1948400D01*
X1732500Y1946300D01*
X1734600Y1942199D01*
X1734600Y1938099D01*
X1732500Y1934000D01*
X1730500Y1931999D01*
X1724399Y1930000D01*
X1706000Y1930000D01*
X1720299Y1930000D02*
G01*
X1734600Y1907500D01*
X1748100Y1950399D02*
G01*
X1748100Y1907500D01*
X1748100Y1950399D02*
G01*
X1774700Y1950399D01*
X1748100Y1930000D02*
G01*
X1764499Y1930000D01*
X1748100Y1907500D02*
G01*
X1774700Y1907500D01*
X1788199Y1950399D02*
G01*
X1788199Y1907500D01*
X1788199Y1950399D02*
G01*
X1806599Y1950399D01*
X1812700Y1948400D01*
X1814799Y1946300D01*
X1816800Y1942199D01*
X1816800Y1936100D01*
X1814799Y1931999D01*
X1812700Y1930000D01*
X1806599Y1927899D01*
X1788199Y1927899D01*
X1830299Y1950399D02*
G01*
X1830299Y1907500D01*
X1830299Y1950399D02*
G01*
X1848699Y1950399D01*
X1854899Y1948400D01*
X1856899Y1946300D01*
X1858999Y1942199D01*
X1858999Y1938099D01*
X1856899Y1934000D01*
X1854899Y1931999D01*
X1848699Y1930000D01*
X1830299Y1930000D01*
X1844600Y1930000D02*
G01*
X1858999Y1907500D01*
X1884700Y1950399D02*
G01*
X1880600Y1948400D01*
X1876499Y1944299D01*
X1874499Y1940199D01*
X1872500Y1934000D01*
X1872500Y1923800D01*
X1874499Y1917699D01*
X1876499Y1913600D01*
X1880600Y1909499D01*
X1884700Y1907500D01*
X1892899Y1907500D01*
X1896999Y1909499D01*
X1901099Y1913600D01*
X1903100Y1917699D01*
X1905200Y1923800D01*
X1905200Y1934000D01*
X1903100Y1940199D01*
X1901099Y1944299D01*
X1896999Y1948400D01*
X1892899Y1950399D01*
X1884700Y1950399D01*
X1950200Y1950399D02*
G01*
X1950200Y1907500D01*
X1950200Y1950399D02*
G01*
X1968599Y1950399D01*
X1974700Y1948400D01*
X1976800Y1946300D01*
X1978800Y1942199D01*
X1978800Y1936100D01*
X1976800Y1931999D01*
X1974700Y1930000D01*
X1968599Y1927899D01*
X1950200Y1927899D01*
X2023000Y1940199D02*
G01*
X2021000Y1944299D01*
X2016899Y1948400D01*
X2012799Y1950399D01*
X2004600Y1950399D01*
X2000500Y1948400D01*
X1996400Y1944299D01*
X1994399Y1940199D01*
X1992299Y1934000D01*
X1992299Y1923800D01*
X1994399Y1917699D01*
X1996400Y1913600D01*
X2000500Y1909499D01*
X2004600Y1907500D01*
X2012799Y1907500D01*
X2016899Y1909499D01*
X2021000Y1913600D01*
X2023000Y1917699D01*
X2036499Y1950399D02*
G01*
X2036499Y1907500D01*
X2036499Y1950399D02*
G01*
X2054899Y1950399D01*
X2061000Y1948400D01*
X2063100Y1946300D01*
X2065100Y1942199D01*
X2065100Y1938099D01*
X2063100Y1934000D01*
X2061000Y1931999D01*
X2054899Y1930000D01*
X2036499Y1930000D02*
G01*
X2054899Y1930000D01*
X2061000Y1927899D01*
X2063100Y1925900D01*
X2065100Y1921799D01*
X2065100Y1915599D01*
X2063100Y1911500D01*
X2061000Y1909499D01*
X2054899Y1907500D01*
X2036499Y1907500D01*
X1674600Y2616399D02*
G01*
X1717500Y2600000D01*
X1674600Y2616399D02*
G01*
X1717500Y2632700D01*
X1703199Y2606100D02*
G01*
X1703199Y2626599D01*
X1684799Y2648299D02*
G01*
X1682799Y2648299D01*
X1678699Y2650300D01*
X1676599Y2652399D01*
X1674600Y2656500D01*
X1674600Y2664600D01*
X1676599Y2668699D01*
X1678699Y2670799D01*
X1682799Y2672800D01*
X1686899Y2672800D01*
X1691000Y2670799D01*
X1697100Y2666700D01*
X1717500Y2646199D01*
X1717500Y2674899D01*
X2665000Y1845399D02*
G01*
X2665000Y1802500D01*
X2665000Y1845399D02*
G01*
X2683400Y1845399D01*
X2689499Y1843400D01*
X2691599Y1841300D01*
X2693599Y1837199D01*
X2693599Y1831100D01*
X2691599Y1826999D01*
X2689499Y1825000D01*
X2683400Y1822899D01*
X2665000Y1822899D01*
X2707100Y1837199D02*
G01*
X2711199Y1839299D01*
X2717399Y1845399D01*
X2717399Y1802500D01*
X1674600Y2175000D02*
G01*
X1717500Y2175000D01*
X1674600Y2175000D02*
G01*
X1674600Y2193400D01*
X1676599Y2199499D01*
X1678699Y2201599D01*
X1682799Y2203600D01*
X1686899Y2203600D01*
X1691000Y2201599D01*
X1693000Y2199499D01*
X1695000Y2193400D01*
X1695000Y2175000D02*
G01*
X1695000Y2193400D01*
X1697100Y2199499D01*
X1699099Y2201599D01*
X1703199Y2203600D01*
X1709399Y2203600D01*
X1713500Y2201599D01*
X1715500Y2199499D01*
X1717500Y2193400D01*
X1717500Y2175000D01*
X1684799Y2219200D02*
G01*
X1682799Y2219200D01*
X1678699Y2221199D01*
X1676599Y2223299D01*
X1674600Y2227399D01*
X1674600Y2235500D01*
X1676599Y2239600D01*
X1678699Y2241700D01*
X1682799Y2243699D01*
X1686899Y2243699D01*
X1691000Y2241700D01*
X1697100Y2237600D01*
X1717500Y2217100D01*
X1717500Y2245799D01*
X854600Y2135000D02*
G01*
X897500Y2135000D01*
X854600Y2135000D02*
G01*
X854600Y2153400D01*
X856599Y2159499D01*
X858699Y2161599D01*
X862799Y2163600D01*
X866899Y2163600D01*
X871000Y2161599D01*
X873000Y2159499D01*
X875000Y2153400D01*
X875000Y2135000D02*
G01*
X875000Y2153400D01*
X877100Y2159499D01*
X879099Y2161599D01*
X883199Y2163600D01*
X889399Y2163600D01*
X893500Y2161599D01*
X895500Y2159499D01*
X897500Y2153400D01*
X897500Y2135000D01*
X862799Y2177100D02*
G01*
X860699Y2181199D01*
X854600Y2187399D01*
X897500Y2187399D01*
X844600Y2616399D02*
G01*
X887500Y2600000D01*
X844600Y2616399D02*
G01*
X887500Y2632700D01*
X873199Y2606100D02*
G01*
X873199Y2626599D01*
X852799Y2646199D02*
G01*
X850699Y2650300D01*
X844600Y2656500D01*
X887500Y2656500D01*
X2209600Y3035000D02*
G01*
X2252500Y3035000D01*
X2209600Y3035000D02*
G01*
X2209600Y3053400D01*
X2211599Y3059499D01*
X2213699Y3061599D01*
X2217799Y3063600D01*
X2221899Y3063600D01*
X2226000Y3061599D01*
X2228000Y3059499D01*
X2230000Y3053400D01*
X2230000Y3035000D01*
X2230000Y3049299D02*
G01*
X2252500Y3063600D01*
X2209600Y3097600D02*
G01*
X2238199Y3077100D01*
X2238199Y3107800D01*
X2209600Y3097600D02*
G01*
X2252500Y3097600D01*
X2344600Y3035000D02*
G01*
X2387500Y3035000D01*
X2344600Y3035000D02*
G01*
X2344600Y3053400D01*
X2346599Y3059499D01*
X2348699Y3061599D01*
X2352799Y3063600D01*
X2356899Y3063600D01*
X2361000Y3061599D01*
X2363000Y3059499D01*
X2365000Y3053400D01*
X2365000Y3035000D01*
X2365000Y3049299D02*
G01*
X2387500Y3063600D01*
X2352799Y3077100D02*
G01*
X2350699Y3081199D01*
X2344600Y3087399D01*
X2387500Y3087399D01*
X2344600Y3113099D02*
G01*
X2346599Y3106999D01*
X2352799Y3102899D01*
X2363000Y3100900D01*
X2369099Y3100900D01*
X2379399Y3102899D01*
X2385500Y3106999D01*
X2387500Y3113099D01*
X2387500Y3117199D01*
X2385500Y3123400D01*
X2379399Y3127500D01*
X2369099Y3129499D01*
X2363000Y3129499D01*
X2352799Y3127500D01*
X2346599Y3123400D01*
X2344600Y3117199D01*
X2344600Y3113099D01*
X639800Y2180700D02*
G01*
X635700Y2178600D01*
X631599Y2174499D01*
X629600Y2170500D01*
X629600Y2162300D01*
X631599Y2158200D01*
X635700Y2154099D01*
X639800Y2151999D01*
X645999Y2150000D01*
X656199Y2150000D01*
X662300Y2151999D01*
X666399Y2154099D01*
X670500Y2158200D01*
X672500Y2162300D01*
X672500Y2170500D01*
X670500Y2174499D01*
X666399Y2178600D01*
X662300Y2180700D01*
X629600Y2204400D02*
G01*
X631599Y2198299D01*
X635700Y2196199D01*
X639800Y2196199D01*
X643899Y2198299D01*
X645999Y2202399D01*
X648000Y2210500D01*
X650000Y2216700D01*
X654099Y2220799D01*
X658200Y2222800D01*
X664400Y2222800D01*
X668499Y2220799D01*
X670500Y2218699D01*
X672500Y2212600D01*
X672500Y2204400D01*
X670500Y2198299D01*
X668499Y2196199D01*
X664400Y2194200D01*
X658200Y2194200D01*
X654099Y2196199D01*
X650000Y2200300D01*
X648000Y2206500D01*
X645999Y2214600D01*
X643899Y2218699D01*
X639800Y2220799D01*
X635700Y2220799D01*
X631599Y2218699D01*
X629600Y2212600D01*
X629600Y2204400D01*
X1919600Y3100000D02*
G01*
X1962500Y3100000D01*
X1919600Y3100000D02*
G01*
X1919600Y3114299D01*
X1921599Y3120500D01*
X1925699Y3124499D01*
X1929799Y3126599D01*
X1936000Y3128600D01*
X1946199Y3128600D01*
X1952299Y3126599D01*
X1956400Y3124499D01*
X1960500Y3120500D01*
X1962500Y3114299D01*
X1962500Y3100000D01*
X1927799Y3142100D02*
G01*
X1925699Y3146199D01*
X1919600Y3152399D01*
X1962500Y3152399D01*
X2064600Y3100000D02*
G01*
X2107500Y3100000D01*
X2064600Y3100000D02*
G01*
X2064600Y3114299D01*
X2066599Y3120500D01*
X2070699Y3124499D01*
X2074799Y3126599D01*
X2081000Y3128600D01*
X2091199Y3128600D01*
X2097299Y3126599D01*
X2101400Y3124499D01*
X2105500Y3120500D01*
X2107500Y3114299D01*
X2107500Y3100000D01*
X2074799Y3144200D02*
G01*
X2072799Y3144200D01*
X2068699Y3146199D01*
X2066599Y3148299D01*
X2064600Y3152399D01*
X2064600Y3160500D01*
X2066599Y3164600D01*
X2068699Y3166700D01*
X2072799Y3168699D01*
X2076899Y3168699D01*
X2081000Y3166700D01*
X2087100Y3162600D01*
X2107500Y3142100D01*
X2107500Y3170799D01*
X879600Y3450000D02*
G01*
X922500Y3450000D01*
X879600Y3450000D02*
G01*
X879600Y3468400D01*
X881599Y3474499D01*
X883699Y3476599D01*
X887799Y3478600D01*
X891899Y3478600D01*
X896000Y3476599D01*
X898000Y3474499D01*
X900000Y3468400D01*
X900000Y3450000D01*
X900000Y3464299D02*
G01*
X922500Y3478600D01*
X887799Y3492100D02*
G01*
X885699Y3496199D01*
X879600Y3502399D01*
X922500Y3502399D01*
X749600Y3440000D02*
G01*
X792500Y3440000D01*
X749600Y3440000D02*
G01*
X749600Y3458400D01*
X751599Y3464499D01*
X753699Y3466599D01*
X757800Y3468600D01*
X761899Y3468600D01*
X766000Y3466599D01*
X768000Y3464499D01*
X770000Y3458400D01*
X770000Y3440000D01*
X770000Y3454299D02*
G01*
X792500Y3468600D01*
X749600Y3510799D02*
G01*
X792500Y3490300D01*
X749600Y3482100D02*
G01*
X749600Y3510799D01*
X1014600Y3425000D02*
G01*
X1057500Y3425000D01*
X1014600Y3425000D02*
G01*
X1014600Y3443400D01*
X1016599Y3449499D01*
X1018699Y3451599D01*
X1022799Y3453600D01*
X1026899Y3453600D01*
X1031000Y3451599D01*
X1033000Y3449499D01*
X1035000Y3443400D01*
X1035000Y3425000D01*
X1035000Y3439299D02*
G01*
X1057500Y3453600D01*
X1022799Y3467100D02*
G01*
X1020699Y3471199D01*
X1014600Y3477399D01*
X1057500Y3477399D01*
X1020699Y3515399D02*
G01*
X1016599Y3513400D01*
X1014600Y3507199D01*
X1014600Y3503099D01*
X1016599Y3496999D01*
X1022799Y3492899D01*
X1033000Y3490900D01*
X1043199Y3490900D01*
X1051400Y3492899D01*
X1055500Y3496999D01*
X1057500Y3503099D01*
X1057500Y3505200D01*
X1055500Y3511300D01*
X1051400Y3515399D01*
X1045299Y3517500D01*
X1043199Y3517500D01*
X1037100Y3515399D01*
X1033000Y3511300D01*
X1031000Y3505200D01*
X1031000Y3503099D01*
X1033000Y3496999D01*
X1037100Y3492899D01*
X1043199Y3490900D01*
X1154600Y3425000D02*
G01*
X1197500Y3425000D01*
X1154600Y3425000D02*
G01*
X1154600Y3443400D01*
X1156599Y3449499D01*
X1158699Y3451599D01*
X1162799Y3453600D01*
X1166899Y3453600D01*
X1171000Y3451599D01*
X1173000Y3449499D01*
X1175000Y3443400D01*
X1175000Y3425000D01*
X1175000Y3439299D02*
G01*
X1197500Y3453600D01*
X1162799Y3467100D02*
G01*
X1160699Y3471199D01*
X1154600Y3477399D01*
X1197500Y3477399D01*
X1168900Y3517500D02*
G01*
X1175000Y3515399D01*
X1179099Y3511300D01*
X1181199Y3505200D01*
X1181199Y3503099D01*
X1179099Y3496999D01*
X1175000Y3492899D01*
X1168900Y3490900D01*
X1166899Y3490900D01*
X1160699Y3492899D01*
X1156599Y3496999D01*
X1154600Y3503099D01*
X1154600Y3505200D01*
X1156599Y3511300D01*
X1160699Y3515399D01*
X1168900Y3517500D01*
X1179099Y3517500D01*
X1189399Y3515399D01*
X1195500Y3511300D01*
X1197500Y3505200D01*
X1197500Y3501100D01*
X1195500Y3495000D01*
X1191400Y3492899D01*
X1009600Y2895000D02*
G01*
X1052500Y2895000D01*
X1009600Y2895000D02*
G01*
X1009600Y2913400D01*
X1011599Y2919499D01*
X1013699Y2921599D01*
X1017799Y2923600D01*
X1021899Y2923600D01*
X1026000Y2921599D01*
X1028000Y2919499D01*
X1030000Y2913400D01*
X1030000Y2895000D01*
X1030000Y2909299D02*
G01*
X1052500Y2923600D01*
X1009600Y2941199D02*
G01*
X1009600Y2963699D01*
X1026000Y2951500D01*
X1026000Y2957600D01*
X1028000Y2961700D01*
X1030000Y2963699D01*
X1036199Y2965799D01*
X1040299Y2965799D01*
X1046400Y2963699D01*
X1050500Y2959600D01*
X1052500Y2953499D01*
X1052500Y2947399D01*
X1050500Y2941199D01*
X1048500Y2939200D01*
X1044399Y2937100D01*
X879600Y2905000D02*
G01*
X922500Y2905000D01*
X879600Y2905000D02*
G01*
X879600Y2923400D01*
X881599Y2929499D01*
X883699Y2931599D01*
X887799Y2933600D01*
X891899Y2933600D01*
X896000Y2931599D01*
X898000Y2929499D01*
X900000Y2923400D01*
X900000Y2905000D01*
X900000Y2919299D02*
G01*
X922500Y2933600D01*
X893900Y2973699D02*
G01*
X900000Y2971700D01*
X904099Y2967600D01*
X906199Y2961500D01*
X906199Y2959400D01*
X904099Y2953299D01*
X900000Y2949200D01*
X893900Y2947100D01*
X891899Y2947100D01*
X885699Y2949200D01*
X881599Y2953299D01*
X879600Y2959400D01*
X879600Y2961500D01*
X881599Y2967600D01*
X885699Y2971700D01*
X893900Y2973699D01*
X904099Y2973699D01*
X914399Y2971700D01*
X920500Y2967600D01*
X922500Y2961500D01*
X922500Y2957399D01*
X920500Y2951199D01*
X916400Y2949200D01*
X604600Y2900000D02*
G01*
X647500Y2900000D01*
X604600Y2900000D02*
G01*
X604600Y2918400D01*
X606599Y2924499D01*
X608699Y2926599D01*
X612800Y2928600D01*
X616900Y2928600D01*
X620999Y2926599D01*
X623000Y2924499D01*
X625000Y2918400D01*
X625000Y2900000D01*
X625000Y2914299D02*
G01*
X647500Y2928600D01*
X612800Y2942100D02*
G01*
X610700Y2946199D01*
X604600Y2952399D01*
X647500Y2952399D01*
X604600Y2990399D02*
G01*
X604600Y2970000D01*
X623000Y2967899D01*
X620999Y2970000D01*
X618899Y2976100D01*
X618899Y2982199D01*
X620999Y2988400D01*
X625000Y2992500D01*
X631199Y2994499D01*
X635300Y2994499D01*
X641399Y2992500D01*
X645500Y2988400D01*
X647500Y2982199D01*
X647500Y2976100D01*
X645500Y2970000D01*
X643499Y2967899D01*
X639400Y2965900D01*
X1159600Y2885000D02*
G01*
X1202500Y2885000D01*
X1159600Y2885000D02*
G01*
X1159600Y2903400D01*
X1161599Y2909499D01*
X1163699Y2911599D01*
X1167799Y2913600D01*
X1171899Y2913600D01*
X1176000Y2911599D01*
X1178000Y2909499D01*
X1180000Y2903400D01*
X1180000Y2885000D01*
X1180000Y2899299D02*
G01*
X1202500Y2913600D01*
X1169799Y2929200D02*
G01*
X1167799Y2929200D01*
X1163699Y2931199D01*
X1161599Y2933299D01*
X1159600Y2937399D01*
X1159600Y2945500D01*
X1161599Y2949600D01*
X1163699Y2951700D01*
X1167799Y2953699D01*
X1171899Y2953699D01*
X1176000Y2951700D01*
X1182100Y2947600D01*
X1202500Y2927100D01*
X1202500Y2955799D01*
X1159600Y2981500D02*
G01*
X1161599Y2975399D01*
X1167799Y2971300D01*
X1178000Y2969299D01*
X1184099Y2969299D01*
X1194399Y2971300D01*
X1200500Y2975399D01*
X1202500Y2981500D01*
X1202500Y2985599D01*
X1200500Y2991799D01*
X1194399Y2995900D01*
X1184099Y2997899D01*
X1178000Y2997899D01*
X1167799Y2995900D01*
X1161599Y2991799D01*
X1159600Y2985599D01*
X1159600Y2981500D01*
X1964600Y3415000D02*
G01*
X2007500Y3415000D01*
X1964600Y3415000D02*
G01*
X1964600Y3433400D01*
X1966599Y3439499D01*
X1968699Y3441599D01*
X1972799Y3443600D01*
X1976899Y3443600D01*
X1981000Y3441599D01*
X1983000Y3439499D01*
X1985000Y3433400D01*
X1985000Y3415000D01*
X1985000Y3429299D02*
G01*
X2007500Y3443600D01*
X1974799Y3459200D02*
G01*
X1972799Y3459200D01*
X1968699Y3461199D01*
X1966599Y3463299D01*
X1964600Y3467399D01*
X1964600Y3475500D01*
X1966599Y3479600D01*
X1968699Y3481700D01*
X1972799Y3483699D01*
X1976899Y3483699D01*
X1981000Y3481700D01*
X1987100Y3477600D01*
X2007500Y3457100D01*
X2007500Y3485799D01*
X1824600Y3415000D02*
G01*
X1867500Y3415000D01*
X1824600Y3415000D02*
G01*
X1824600Y3433400D01*
X1826599Y3439499D01*
X1828699Y3441599D01*
X1832799Y3443600D01*
X1836899Y3443600D01*
X1841000Y3441599D01*
X1843000Y3439499D01*
X1845000Y3433400D01*
X1845000Y3415000D01*
X1845000Y3429299D02*
G01*
X1867500Y3443600D01*
X1824600Y3467399D02*
G01*
X1826599Y3461199D01*
X1830699Y3459200D01*
X1834799Y3459200D01*
X1838900Y3461199D01*
X1841000Y3465300D01*
X1843000Y3473499D01*
X1845000Y3479600D01*
X1849099Y3483699D01*
X1853199Y3485799D01*
X1859399Y3485799D01*
X1863500Y3483699D01*
X1865500Y3481700D01*
X1867500Y3475500D01*
X1867500Y3467399D01*
X1865500Y3461199D01*
X1863500Y3459200D01*
X1859399Y3457100D01*
X1853199Y3457100D01*
X1849099Y3459200D01*
X1845000Y3463299D01*
X1843000Y3469400D01*
X1841000Y3477600D01*
X1838900Y3481700D01*
X1834799Y3483699D01*
X1830699Y3483699D01*
X1826599Y3481700D01*
X1824600Y3475500D01*
X1824600Y3467399D01*
X1424600Y3128600D02*
G01*
X1467500Y3100000D01*
X1424600Y3100000D02*
G01*
X1424600Y3128600D01*
X1467500Y3100000D02*
G01*
X1467500Y3128600D01*
X1424600Y3142100D02*
G01*
X1467500Y3142100D01*
X1424600Y3142100D02*
G01*
X1424600Y3156500D01*
X1426599Y3162600D01*
X1430699Y3166700D01*
X1434799Y3168699D01*
X1441000Y3170799D01*
X1451199Y3170799D01*
X1457299Y3168699D01*
X1461400Y3166700D01*
X1465500Y3162600D01*
X1467500Y3156500D01*
X1467500Y3142100D01*
X1432799Y3184299D02*
G01*
X1430699Y3188400D01*
X1424600Y3194499D01*
X1467500Y3194499D01*
X1254600Y3113600D02*
G01*
X1297500Y3085000D01*
X1254600Y3085000D02*
G01*
X1254600Y3113600D01*
X1297500Y3085000D02*
G01*
X1297500Y3113600D01*
X1254600Y3127100D02*
G01*
X1297500Y3127100D01*
X1254600Y3127100D02*
G01*
X1254600Y3141500D01*
X1256599Y3147600D01*
X1260699Y3151700D01*
X1264799Y3153699D01*
X1271000Y3155799D01*
X1281199Y3155799D01*
X1287299Y3153699D01*
X1291400Y3151700D01*
X1295500Y3147600D01*
X1297500Y3141500D01*
X1297500Y3127100D01*
X1264799Y3171300D02*
G01*
X1262799Y3171300D01*
X1258699Y3173400D01*
X1256599Y3175399D01*
X1254600Y3179499D01*
X1254600Y3187700D01*
X1256599Y3191799D01*
X1258699Y3193800D01*
X1262799Y3195900D01*
X1266899Y3195900D01*
X1271000Y3193800D01*
X1277100Y3189699D01*
X1297500Y3169299D01*
X1297500Y3197899D01*
X1599600Y3118600D02*
G01*
X1642500Y3090000D01*
X1599600Y3090000D02*
G01*
X1599600Y3118600D01*
X1642500Y3090000D02*
G01*
X1642500Y3118600D01*
X1599600Y3132100D02*
G01*
X1642500Y3132100D01*
X1599600Y3132100D02*
G01*
X1599600Y3146500D01*
X1601599Y3152600D01*
X1605699Y3156700D01*
X1609799Y3158699D01*
X1616000Y3160799D01*
X1626199Y3160799D01*
X1632299Y3158699D01*
X1636400Y3156700D01*
X1640500Y3152600D01*
X1642500Y3146500D01*
X1642500Y3132100D01*
X1599600Y3178400D02*
G01*
X1599600Y3200900D01*
X1616000Y3188600D01*
X1616000Y3194699D01*
X1618000Y3198800D01*
X1620000Y3200900D01*
X1626199Y3202899D01*
X1630299Y3202899D01*
X1636400Y3200900D01*
X1640500Y3196799D01*
X1642500Y3190599D01*
X1642500Y3184499D01*
X1640500Y3178400D01*
X1638500Y3176300D01*
X1634399Y3174299D01*
X1759600Y3118600D02*
G01*
X1802500Y3090000D01*
X1759600Y3090000D02*
G01*
X1759600Y3118600D01*
X1802500Y3090000D02*
G01*
X1802500Y3118600D01*
X1759600Y3132100D02*
G01*
X1802500Y3132100D01*
X1759600Y3132100D02*
G01*
X1759600Y3146500D01*
X1761599Y3152600D01*
X1765699Y3156700D01*
X1769799Y3158699D01*
X1776000Y3160799D01*
X1786199Y3160799D01*
X1792299Y3158699D01*
X1796400Y3156700D01*
X1800500Y3152600D01*
X1802500Y3146500D01*
X1802500Y3132100D01*
X1759600Y3194699D02*
G01*
X1788199Y3174299D01*
X1788199Y3205000D01*
X1759600Y3194699D02*
G01*
X1802500Y3194699D01*
X2749600Y3655000D02*
G01*
X2792500Y3655000D01*
X2749600Y3655000D02*
G01*
X2749600Y3673400D01*
X2751599Y3679499D01*
X2753699Y3681599D01*
X2757799Y3683600D01*
X2761899Y3683600D01*
X2766000Y3681599D01*
X2768000Y3679499D01*
X2770000Y3673400D01*
X2770000Y3655000D01*
X2770000Y3669299D02*
G01*
X2792500Y3683600D01*
X2749600Y3721700D02*
G01*
X2749600Y3701199D01*
X2768000Y3699200D01*
X2766000Y3701199D01*
X2763900Y3707399D01*
X2763900Y3713499D01*
X2766000Y3719600D01*
X2770000Y3723699D01*
X2776199Y3725799D01*
X2780299Y3725799D01*
X2786400Y3723699D01*
X2790500Y3719600D01*
X2792500Y3713499D01*
X2792500Y3707399D01*
X2790500Y3701199D01*
X2788500Y3699200D01*
X2784399Y3697100D01*
X2284600Y3660000D02*
G01*
X2327500Y3660000D01*
X2284600Y3660000D02*
G01*
X2284600Y3678400D01*
X2286599Y3684499D01*
X2288699Y3686599D01*
X2292799Y3688600D01*
X2296899Y3688600D01*
X2301000Y3686599D01*
X2303000Y3684499D01*
X2305000Y3678400D01*
X2305000Y3660000D01*
X2305000Y3674299D02*
G01*
X2327500Y3688600D01*
X2290699Y3726700D02*
G01*
X2286599Y3724600D01*
X2284600Y3718499D01*
X2284600Y3714400D01*
X2286599Y3708299D01*
X2292799Y3704200D01*
X2303000Y3702100D01*
X2313199Y3702100D01*
X2321400Y3704200D01*
X2325500Y3708299D01*
X2327500Y3714400D01*
X2327500Y3716500D01*
X2325500Y3722600D01*
X2321400Y3726700D01*
X2315299Y3728699D01*
X2313199Y3728699D01*
X2307100Y3726700D01*
X2303000Y3722600D01*
X2301000Y3716500D01*
X2301000Y3714400D01*
X2303000Y3708299D01*
X2307100Y3704200D01*
X2313199Y3702100D01*
X2599600Y3655000D02*
G01*
X2642500Y3655000D01*
X2599600Y3655000D02*
G01*
X2599600Y3673400D01*
X2601599Y3679499D01*
X2603699Y3681599D01*
X2607799Y3683600D01*
X2611899Y3683600D01*
X2616000Y3681599D01*
X2618000Y3679499D01*
X2620000Y3673400D01*
X2620000Y3655000D01*
X2620000Y3669299D02*
G01*
X2642500Y3683600D01*
X2607799Y3697100D02*
G01*
X2605699Y3701199D01*
X2599600Y3707399D01*
X2642500Y3707399D01*
X2599600Y3749499D02*
G01*
X2642500Y3729000D01*
X2599600Y3720900D02*
G01*
X2599600Y3749499D01*
X2439600Y3654998D02*
G01*
X2482500Y3654998D01*
X2439600Y3654998D02*
G01*
X2439600Y3673398D01*
X2441599Y3679497D01*
X2443699Y3681597D01*
X2447799Y3683598D01*
X2451899Y3683598D01*
X2456000Y3681597D01*
X2458000Y3679497D01*
X2460000Y3673398D01*
X2460000Y3654998D01*
X2460000Y3669297D02*
G01*
X2482500Y3683598D01*
X2447799Y3697098D02*
G01*
X2445699Y3701197D01*
X2439600Y3707397D01*
X2482500Y3707397D01*
X2439600Y3731098D02*
G01*
X2441599Y3724998D01*
X2445699Y3722898D01*
X2449799Y3722898D01*
X2453900Y3724998D01*
X2456000Y3728998D01*
X2458000Y3737197D01*
X2460000Y3743398D01*
X2464099Y3747498D01*
X2468199Y3749497D01*
X2474399Y3749497D01*
X2478500Y3747498D01*
X2480500Y3745398D01*
X2482500Y3739297D01*
X2482500Y3731098D01*
X2480500Y3724998D01*
X2478500Y3722898D01*
X2474399Y3720898D01*
X2468199Y3720898D01*
X2464099Y3722898D01*
X2460000Y3726997D01*
X2458000Y3733098D01*
X2456000Y3741298D01*
X2453900Y3745398D01*
X2449799Y3747498D01*
X2445699Y3747498D01*
X2441599Y3745398D01*
X2439600Y3739297D01*
X2439600Y3731098D01*
X1245699Y3870200D02*
G01*
X1243599Y3874299D01*
X1239499Y3878400D01*
X1235500Y3880399D01*
X1227299Y3880399D01*
X1223199Y3878400D01*
X1219099Y3874299D01*
X1216999Y3870200D01*
X1215000Y3864000D01*
X1215000Y3853800D01*
X1216999Y3847700D01*
X1219099Y3843600D01*
X1223199Y3839499D01*
X1227299Y3837500D01*
X1235500Y3837500D01*
X1239499Y3839499D01*
X1243599Y3843600D01*
X1245699Y3847700D01*
X1259200Y3872199D02*
G01*
X1263299Y3874299D01*
X1269399Y3880399D01*
X1269399Y3837500D01*
X2125699Y3525200D02*
G01*
X2123599Y3529299D01*
X2119499Y3533400D01*
X2115500Y3535399D01*
X2107299Y3535399D01*
X2103199Y3533400D01*
X2099099Y3529299D01*
X2096999Y3525200D01*
X2095000Y3519000D01*
X2095000Y3508800D01*
X2096999Y3502700D01*
X2099099Y3498600D01*
X2103199Y3494499D01*
X2107299Y3492500D01*
X2115500Y3492500D01*
X2119499Y3494499D01*
X2123599Y3498600D01*
X2125699Y3502700D01*
X2141199Y3525200D02*
G01*
X2141199Y3527199D01*
X2143299Y3531300D01*
X2145299Y3533400D01*
X2149399Y3535399D01*
X2157600Y3535399D01*
X2161700Y3533400D01*
X2163699Y3531300D01*
X2165799Y3527199D01*
X2165799Y3523099D01*
X2163699Y3519000D01*
X2159600Y3512899D01*
X2139200Y3492500D01*
X2167799Y3492500D01*
X1510699Y3875200D02*
G01*
X1508599Y3879299D01*
X1504499Y3883400D01*
X1500500Y3885399D01*
X1492299Y3885399D01*
X1488199Y3883400D01*
X1484099Y3879299D01*
X1481999Y3875200D01*
X1480000Y3869000D01*
X1480000Y3858800D01*
X1481999Y3852700D01*
X1484099Y3848600D01*
X1488199Y3844499D01*
X1492299Y3842500D01*
X1500500Y3842500D01*
X1504499Y3844499D01*
X1508599Y3848600D01*
X1510699Y3852700D01*
X1528299Y3885399D02*
G01*
X1550799Y3885399D01*
X1538500Y3869000D01*
X1544600Y3869000D01*
X1548699Y3866999D01*
X1550799Y3865000D01*
X1552799Y3858800D01*
X1552799Y3854699D01*
X1550799Y3848600D01*
X1546700Y3844499D01*
X1540500Y3842500D01*
X1534399Y3842500D01*
X1528299Y3844499D01*
X1526199Y3846500D01*
X1524200Y3850599D01*
X700700Y2685200D02*
G01*
X698600Y2689299D01*
X694499Y2693400D01*
X690500Y2695399D01*
X682300Y2695399D01*
X678200Y2693400D01*
X674099Y2689299D01*
X671999Y2685200D01*
X670000Y2679000D01*
X670000Y2668800D01*
X671999Y2662700D01*
X674099Y2658600D01*
X678200Y2654499D01*
X682300Y2652500D01*
X690500Y2652500D01*
X694499Y2654499D01*
X698600Y2658600D01*
X700700Y2662700D01*
X734600Y2695399D02*
G01*
X714200Y2666799D01*
X744899Y2666799D01*
X734600Y2695399D02*
G01*
X734600Y2652500D01*
X2664799Y2155700D02*
G01*
X2660699Y2153600D01*
X2656599Y2149499D01*
X2654600Y2145500D01*
X2654600Y2137300D01*
X2656599Y2133200D01*
X2660699Y2129099D01*
X2664799Y2126999D01*
X2671000Y2125000D01*
X2681199Y2125000D01*
X2687299Y2126999D01*
X2691400Y2129099D01*
X2695500Y2133200D01*
X2697500Y2137300D01*
X2697500Y2145500D01*
X2695500Y2149499D01*
X2691400Y2153600D01*
X2687299Y2155700D01*
X2660699Y2193699D02*
G01*
X2656599Y2191700D01*
X2654600Y2185500D01*
X2654600Y2181500D01*
X2656599Y2175300D01*
X2662799Y2171199D01*
X2673000Y2169200D01*
X2683199Y2169200D01*
X2691400Y2171199D01*
X2695500Y2175300D01*
X2697500Y2181500D01*
X2697500Y2183499D01*
X2695500Y2189600D01*
X2691400Y2193699D01*
X2685299Y2195799D01*
X2683199Y2195799D01*
X2677100Y2193699D01*
X2673000Y2189600D01*
X2671000Y2183499D01*
X2671000Y2181500D01*
X2673000Y2175300D01*
X2677100Y2171199D01*
X2683199Y2169200D01*
X1440699Y3585200D02*
G01*
X1438599Y3589299D01*
X1434499Y3593400D01*
X1430500Y3595399D01*
X1422299Y3595399D01*
X1418199Y3593400D01*
X1414099Y3589299D01*
X1411999Y3585200D01*
X1410000Y3579000D01*
X1410000Y3568800D01*
X1411999Y3562700D01*
X1414099Y3558600D01*
X1418199Y3554499D01*
X1422299Y3552500D01*
X1430500Y3552500D01*
X1434499Y3554499D01*
X1438599Y3558600D01*
X1440699Y3562700D01*
X1482799Y3595399D02*
G01*
X1462399Y3552500D01*
X1454200Y3595399D02*
G01*
X1482799Y3595399D01*
X1380000Y4175399D02*
G01*
X1380000Y4132500D01*
X1380000Y4175399D02*
G01*
X1398400Y4175399D01*
X1404499Y4173400D01*
X1406599Y4171300D01*
X1408599Y4167199D01*
X1408599Y4163099D01*
X1406599Y4159000D01*
X1404499Y4156999D01*
X1398400Y4155000D01*
X1380000Y4155000D01*
X1394300Y4155000D02*
G01*
X1408599Y4132500D01*
X1422100Y4167199D02*
G01*
X1426199Y4169299D01*
X1432399Y4175399D01*
X1432399Y4132500D01*
X1445900Y4167199D02*
G01*
X1450000Y4169299D01*
X1456099Y4175399D01*
X1456099Y4132500D01*
X640000Y4165399D02*
G01*
X640000Y4122500D01*
X640000Y4165399D02*
G01*
X658400Y4165399D01*
X664499Y4163400D01*
X666599Y4161300D01*
X668600Y4157199D01*
X668600Y4153099D01*
X666599Y4149000D01*
X664499Y4146999D01*
X658400Y4145000D01*
X640000Y4145000D01*
X654299Y4145000D02*
G01*
X668600Y4122500D01*
X682100Y4157199D02*
G01*
X686199Y4159299D01*
X692399Y4165399D01*
X692399Y4122500D01*
X707899Y4155200D02*
G01*
X707899Y4157199D01*
X710000Y4161300D01*
X711999Y4163400D01*
X716100Y4165399D01*
X724299Y4165399D01*
X728400Y4163400D01*
X730399Y4161300D01*
X732500Y4157199D01*
X732500Y4153099D01*
X730399Y4149000D01*
X726300Y4142899D01*
X705900Y4122500D01*
X734499Y4122500D01*
X2549600Y2375000D02*
G01*
X2592500Y2375000D01*
X2549600Y2375000D02*
G01*
X2549600Y2393400D01*
X2551599Y2399499D01*
X2553699Y2401599D01*
X2557799Y2403600D01*
X2561899Y2403600D01*
X2566000Y2401599D01*
X2568000Y2399499D01*
X2570000Y2393400D01*
X2570000Y2375000D01*
X2570000Y2389299D02*
G01*
X2592500Y2403600D01*
X2557799Y2417100D02*
G01*
X2555699Y2421199D01*
X2549600Y2427399D01*
X2592500Y2427399D01*
X2549600Y2445000D02*
G01*
X2549600Y2467500D01*
X2566000Y2455200D01*
X2566000Y2461300D01*
X2568000Y2465399D01*
X2570000Y2467500D01*
X2576199Y2469499D01*
X2580299Y2469499D01*
X2586400Y2467500D01*
X2590500Y2463400D01*
X2592500Y2457199D01*
X2592500Y2451100D01*
X2590500Y2445000D01*
X2588500Y2442899D01*
X2584399Y2440900D01*
X2679600Y3200000D02*
G01*
X2722500Y3200000D01*
X2679600Y3200000D02*
G01*
X2679600Y3218400D01*
X2681599Y3224499D01*
X2683699Y3226599D01*
X2687799Y3228600D01*
X2691899Y3228600D01*
X2696000Y3226599D01*
X2698000Y3224499D01*
X2700000Y3218400D01*
X2700000Y3200000D01*
X2700000Y3214299D02*
G01*
X2722500Y3228600D01*
X2687799Y3242100D02*
G01*
X2685699Y3246199D01*
X2679600Y3252399D01*
X2722500Y3252399D01*
X2679600Y3286300D02*
G01*
X2708199Y3265900D01*
X2708199Y3296500D01*
X2679600Y3286300D02*
G01*
X2722500Y3286300D01*
G36*
X1380640Y3795000D02*
G01*
X1380640Y3665000D01*
X1384400Y3668840D01*
X1387940Y3672880D01*
X1391240Y3677140D01*
X1394280Y3681580D01*
X1397040Y3686200D01*
X1399520Y3690980D01*
X1401699Y3695899D01*
X1403600Y3700940D01*
X1405180Y3706080D01*
X1406459Y3711300D01*
X1407420Y3716600D01*
X1408060Y3721940D01*
X1408380Y3727300D01*
X1408380Y3732700D01*
X1408060Y3738060D01*
X1407420Y3743399D01*
X1406459Y3748700D01*
X1405180Y3753920D01*
X1403600Y3759060D01*
X1401699Y3764100D01*
X1399520Y3769020D01*
X1397040Y3773800D01*
X1394280Y3778420D01*
X1391240Y3782860D01*
X1387940Y3787120D01*
X1384400Y3791160D01*
G37*
G36*
X2229360Y3590000D02*
G01*
X2225600Y3586160D01*
X2222060Y3582120D01*
X2218760Y3577860D01*
X2215720Y3573420D01*
X2212960Y3568800D01*
X2210480Y3564020D01*
X2208300Y3559100D01*
X2206400Y3554060D01*
X2204820Y3548920D01*
X2203540Y3543700D01*
X2202580Y3538399D01*
X2201940Y3533060D01*
X2201620Y3527700D01*
X2201620Y3522300D01*
X2201940Y3516940D01*
X2202580Y3511600D01*
X2203540Y3506300D01*
X2204820Y3501080D01*
X2206400Y3495940D01*
X2208300Y3490899D01*
X2210480Y3485980D01*
X2212960Y3481200D01*
X2215720Y3476580D01*
X2218760Y3472140D01*
X2222060Y3467880D01*
X2225600Y3463840D01*
X2229360Y3460000D01*
G37*
G36*
X1650640Y3790000D02*
G01*
X1650640Y3660000D01*
X1654400Y3663840D01*
X1657940Y3667880D01*
X1661240Y3672140D01*
X1664280Y3676580D01*
X1667040Y3681200D01*
X1669520Y3685980D01*
X1671699Y3690899D01*
X1673600Y3695940D01*
X1675180Y3701080D01*
X1676459Y3706300D01*
X1677420Y3711600D01*
X1678060Y3716940D01*
X1678380Y3722300D01*
X1678380Y3727700D01*
X1678060Y3733060D01*
X1677420Y3738399D01*
X1676459Y3743700D01*
X1675180Y3748920D01*
X1673600Y3754060D01*
X1671699Y3759100D01*
X1669520Y3764020D01*
X1667040Y3768800D01*
X1664280Y3773420D01*
X1661240Y3777860D01*
X1657940Y3782120D01*
X1654400Y3786160D01*
G37*
G36*
X634360Y2680000D02*
G01*
X630600Y2676160D01*
X627060Y2672120D01*
X623760Y2667860D01*
X620720Y2663420D01*
X617960Y2658800D01*
X615480Y2654020D01*
X613300Y2649100D01*
X611400Y2644060D01*
X609820Y2638920D01*
X608540Y2633700D01*
X607580Y2628399D01*
X606940Y2623060D01*
X606620Y2617700D01*
X606620Y2612300D01*
X606940Y2606940D01*
X607580Y2601600D01*
X608540Y2596300D01*
X609820Y2591080D01*
X611400Y2585940D01*
X613300Y2580899D01*
X615480Y2575980D01*
X617960Y2571200D01*
X620720Y2566580D01*
X623760Y2562140D01*
X627060Y2557880D01*
X630600Y2553840D01*
X634360Y2550000D01*
G37*
D11*
X1749489Y2759059D02*
G01*
X1749489Y2668310D01*
X1749489Y2526770D02*
G01*
X1749489Y2618310D01*
X1749489Y2759059D02*
G01*
X1788422Y2759059D01*
X1821577Y2759059D02*
G01*
X1888422Y2759059D01*
X1921577Y2759059D02*
G01*
X1988422Y2759059D01*
X2021577Y2759059D02*
G01*
X2088422Y2759059D01*
X2121577Y2759059D02*
G01*
X2188422Y2759059D01*
X2221577Y2759059D02*
G01*
X2288422Y2759059D01*
X2321577Y2759059D02*
G01*
X2388422Y2759059D01*
X2421577Y2759059D02*
G01*
X2488422Y2759059D01*
X2521577Y2759059D02*
G01*
X2555000Y2759059D01*
X1749489Y2526770D02*
G01*
X1765713Y2526770D01*
X1844286Y2526770D02*
G01*
X1871940Y2526770D01*
X1938059Y2526770D02*
G01*
X1971940Y2526770D01*
X2038059Y2526770D02*
G01*
X2071940Y2526770D01*
X2138059Y2526770D02*
G01*
X2171940Y2526770D01*
X2238059Y2526770D02*
G01*
X2271940Y2526770D01*
X2338059Y2526770D02*
G01*
X2371940Y2526770D01*
X2438059Y2526770D02*
G01*
X2471940Y2526770D01*
X2555000Y2759059D02*
G01*
X2555000Y2526770D01*
X2555000Y2526770D02*
G01*
X2538059Y2526770D01*
D12*
X635000Y1780000D02*
G01*
X635000Y1775000D01*
X2635000Y1775000D01*
X2635000Y1880000D01*
X635000Y1880000D01*
X635000Y1780000D01*
D11*
X1755000Y2155000D02*
G01*
X1755000Y2075668D01*
X2455000Y2075668D01*
X2455000Y2284331D01*
X1755000Y2284331D01*
X1755000Y2205000D01*
X920000Y2145000D02*
G01*
X920000Y2065668D01*
X1620000Y2065668D01*
X1620000Y2274331D01*
X920000Y2274331D01*
X920000Y2195000D01*
X915000Y2610000D02*
G01*
X915000Y2530668D01*
X1615000Y2530668D01*
X1615000Y2739331D01*
X915000Y2739331D01*
X915000Y2660000D01*
D13*
X2194723Y3267953D02*
G01*
X2285276Y3267953D01*
X2285276Y3267953D02*
G01*
X2285276Y3012046D01*
X2284093Y3012046D02*
G01*
X2195906Y3012046D01*
X2194723Y3012046D02*
G01*
X2194723Y3267953D01*
X2329723Y3267953D02*
G01*
X2420276Y3267953D01*
X2420276Y3267953D02*
G01*
X2420276Y3012046D01*
X2419093Y3012046D02*
G01*
X2330906Y3012046D01*
X2329723Y3012046D02*
G01*
X2329723Y3267953D01*
X690949Y2012840D02*
G01*
X690949Y2367170D01*
X690949Y2367170D02*
G01*
X809059Y2367170D01*
X809059Y2367170D02*
G01*
X809059Y2012840D01*
X809059Y2012840D02*
G01*
X690949Y2012840D01*
X2046692Y3033386D02*
G01*
X2046692Y3206615D01*
X2133307Y3033386D02*
G01*
X2133307Y3206615D01*
X2046692Y3033386D02*
G01*
X2133307Y3033386D01*
X2046692Y3206615D02*
G01*
X2133307Y3206615D01*
X2046692Y3070369D02*
G01*
X2133307Y3070369D01*
X1901692Y3038386D02*
G01*
X1901692Y3211615D01*
X1988307Y3038386D02*
G01*
X1988307Y3211615D01*
X1901692Y3038386D02*
G01*
X1988307Y3038386D01*
X1901692Y3211615D02*
G01*
X1988307Y3211615D01*
X1901692Y3075369D02*
G01*
X1988307Y3075369D01*
X880276Y3527046D02*
G01*
X789723Y3527046D01*
X789723Y3527046D02*
G01*
X789723Y3782953D01*
X790906Y3782953D02*
G01*
X879093Y3782953D01*
X880276Y3782953D02*
G01*
X880276Y3527046D01*
X750275Y3527046D02*
G01*
X659724Y3527046D01*
X659724Y3527046D02*
G01*
X659724Y3782953D01*
X660906Y3782953D02*
G01*
X749094Y3782953D01*
X750275Y3782953D02*
G01*
X750275Y3527046D01*
X1010276Y3527046D02*
G01*
X919723Y3527046D01*
X919723Y3527046D02*
G01*
X919723Y3782953D01*
X920906Y3782953D02*
G01*
X1009093Y3782953D01*
X1010276Y3782953D02*
G01*
X1010276Y3527046D01*
X1145276Y3527046D02*
G01*
X1054723Y3527046D01*
X1054723Y3527046D02*
G01*
X1054723Y3782953D01*
X1055906Y3782953D02*
G01*
X1144093Y3782953D01*
X1145276Y3782953D02*
G01*
X1145276Y3527046D01*
X919723Y3257953D02*
G01*
X1010276Y3257953D01*
X1010276Y3257953D02*
G01*
X1010276Y3002046D01*
X1009093Y3002046D02*
G01*
X920906Y3002046D01*
X919723Y3002046D02*
G01*
X919723Y3257953D01*
X789723Y3257953D02*
G01*
X880276Y3257953D01*
X880276Y3257953D02*
G01*
X880276Y3002046D01*
X879093Y3002046D02*
G01*
X790906Y3002046D01*
X789723Y3002046D02*
G01*
X789723Y3257953D01*
X659724Y3257953D02*
G01*
X750275Y3257953D01*
X750275Y3257953D02*
G01*
X750275Y3002046D01*
X749094Y3002046D02*
G01*
X660906Y3002046D01*
X659724Y3002046D02*
G01*
X659724Y3257953D01*
X1054723Y3257953D02*
G01*
X1145276Y3257953D01*
X1145276Y3257953D02*
G01*
X1145276Y3002046D01*
X1144093Y3002046D02*
G01*
X1055906Y3002046D01*
X1054723Y3002046D02*
G01*
X1054723Y3257953D01*
X1955276Y3517046D02*
G01*
X1864723Y3517046D01*
X1864723Y3517046D02*
G01*
X1864723Y3772953D01*
X1865906Y3772953D02*
G01*
X1954093Y3772953D01*
X1955276Y3772953D02*
G01*
X1955276Y3517046D01*
X1825276Y3517046D02*
G01*
X1734723Y3517046D01*
X1734723Y3517046D02*
G01*
X1734723Y3772953D01*
X1735906Y3772953D02*
G01*
X1824093Y3772953D01*
X1825276Y3772953D02*
G01*
X1825276Y3517046D01*
X1394881Y3022638D02*
G01*
X1394881Y3227361D01*
X1394881Y3227361D02*
G01*
X1505118Y3227361D01*
X1505118Y3022638D02*
G01*
X1505118Y3227361D01*
X1394881Y3022638D02*
G01*
X1505118Y3022638D01*
X1394881Y3060403D02*
G01*
X1505118Y3060403D01*
X1224881Y3022638D02*
G01*
X1224881Y3227361D01*
X1224881Y3227361D02*
G01*
X1335118Y3227361D01*
X1335118Y3022638D02*
G01*
X1335118Y3227361D01*
X1224881Y3022638D02*
G01*
X1335118Y3022638D01*
X1224881Y3060403D02*
G01*
X1335118Y3060403D01*
X1564881Y3022638D02*
G01*
X1564881Y3227361D01*
X1564881Y3227361D02*
G01*
X1675118Y3227361D01*
X1675118Y3022638D02*
G01*
X1675118Y3227361D01*
X1564881Y3022638D02*
G01*
X1675118Y3022638D01*
X1564881Y3060403D02*
G01*
X1675118Y3060403D01*
X1729881Y3027638D02*
G01*
X1729881Y3232361D01*
X1729881Y3232361D02*
G01*
X1840118Y3232361D01*
X1840118Y3027638D02*
G01*
X1840118Y3232361D01*
X1729881Y3027638D02*
G01*
X1840118Y3027638D01*
X1729881Y3065403D02*
G01*
X1840118Y3065403D01*
X2649723Y4022953D02*
G01*
X2740276Y4022953D01*
X2740276Y4022953D02*
G01*
X2740276Y3767046D01*
X2739093Y3767046D02*
G01*
X2650906Y3767046D01*
X2649723Y3767046D02*
G01*
X2649723Y4022953D01*
X2275276Y3762046D02*
G01*
X2184723Y3762046D01*
X2184723Y3762046D02*
G01*
X2184723Y4017953D01*
X2185906Y4017953D02*
G01*
X2274093Y4017953D01*
X2275276Y4017953D02*
G01*
X2275276Y3762046D01*
X2590276Y3762049D02*
G01*
X2499723Y3762049D01*
X2499723Y3762049D02*
G01*
X2499723Y4017955D01*
X2500906Y4017955D02*
G01*
X2589093Y4017955D01*
X2590276Y4017955D02*
G01*
X2590276Y3762049D01*
X2339723Y4012953D02*
G01*
X2430276Y4012953D01*
X2430276Y4012953D02*
G01*
X2430276Y3757046D01*
X2429093Y3757046D02*
G01*
X2340906Y3757046D01*
X2339723Y3757046D02*
G01*
X2339723Y4012953D01*
X1250309Y3789050D02*
G01*
X1290309Y3789050D01*
X1270630Y3808739D02*
G01*
X1270630Y3768739D01*
X2359690Y3465949D02*
G01*
X2319690Y3465949D01*
X2339369Y3446260D02*
G01*
X2339369Y3486260D01*
X1520309Y3784050D02*
G01*
X1560309Y3784050D01*
X1540630Y3803739D02*
G01*
X1540630Y3763739D01*
X764690Y2555949D02*
G01*
X724690Y2555949D01*
X744369Y2536260D02*
G01*
X744369Y2576260D01*
X2634049Y2337159D02*
G01*
X2634049Y1982829D01*
X2634049Y1982829D02*
G01*
X2515940Y1982829D01*
X2515940Y1982829D02*
G01*
X2515940Y2337159D01*
X2515940Y2337159D02*
G01*
X2634049Y2337159D01*
X1262839Y3529050D02*
G01*
X1617169Y3529050D01*
X1617169Y3529050D02*
G01*
X1617169Y3410940D01*
X1617169Y3410940D02*
G01*
X1262839Y3410940D01*
X1262839Y3410940D02*
G01*
X1262839Y3529050D01*
X1473621Y3956417D02*
G01*
X1473621Y4133582D01*
X1473621Y4133582D02*
G01*
X1926378Y4133582D01*
X1926378Y4133582D02*
G01*
X1926378Y3956417D01*
X1926000Y3955999D02*
G01*
X1473999Y3955999D01*
X758622Y3956417D02*
G01*
X758622Y4133582D01*
X758622Y4133582D02*
G01*
X1211378Y4133582D01*
X1211378Y4133582D02*
G01*
X1211378Y3956417D01*
X1211000Y3955999D02*
G01*
X759000Y3955999D01*
X2788582Y2413622D02*
G01*
X2611417Y2413622D01*
X2611417Y2413622D02*
G01*
X2611417Y2866377D01*
X2611417Y2866377D02*
G01*
X2788582Y2866377D01*
X2788999Y2865999D02*
G01*
X2788999Y2414000D01*
X2653582Y3018622D02*
G01*
X2476417Y3018622D01*
X2476417Y3018622D02*
G01*
X2476417Y3471377D01*
X2476417Y3471377D02*
G01*
X2653582Y3471377D01*
X2653999Y3470999D02*
G01*
X2653999Y3019000D01*
D14*
G75*
G01*
X1777000Y2578310D02*
G03*
X1777000Y2578510I11811J100D01*
D15*
G75*
G01*
X1748900Y2493310D02*
G03*
X1748900Y2493410I4921J50D01*
D11*
G75*
G01*
X1749500Y2618310D02*
G03*
X1749500Y2668310I0J25000D01*
G75*
G01*
X1755000Y2155000D02*
G03*
X1755000Y2205000I0J25000D01*
G75*
G01*
X920000Y2145000D02*
G03*
X920000Y2195000I0J25000D01*
G75*
G01*
X915000Y2610000D02*
G03*
X915000Y2660000I0J25000D01*
D16*
G75*
G01
X1408430Y3730000D02*
G03X1408430Y3730000I-98430J0D01*
G75*
G01
X2398430Y3525000D02*
G03X2398430Y3525000I-98430J0D01*
G75*
G01
X1678430Y3725000D02*
G03X1678430Y3725000I-98430J0D01*
G75*
G01
X803430Y2615000D02*
G03X803430Y2615000I-98430J0D01*
M02*
