G04 Layer: TopLayer*
G04 EasyEDA v6.5.22, 2023-01-18 22:18:13*
G04 b90e41fe8b0c41359a3314c958ec5ec0,7be1179030e74d40a97a3c751b95adb4,10*
G04 Gerber Generator version 0.2*
G04 Scale: 100 percent, Rotated: No, Reflected: No *
G04 Dimensions in inches *
G04 leading zeros omitted , absolute positions ,3 integer and 6 decimal *
%FSLAX36Y36*%
%MOIN*%

%ADD10C,0.0100*%
%ADD11C,0.0500*%
%ADD12C,0.0400*%
%ADD13C,0.0600*%
%ADD14C,0.0200*%
%ADD15O,0.06299199999999999X0.06299199999999999*%
%ADD16R,0.0630X0.0630*%
%ADD17C,0.0709*%
%ADD18R,0.0709X0.0709*%
%ADD19R,0.0591X0.0787*%
%ADD20O,0.059054999999999996X0.07873999999999999*%
%ADD21C,0.0740*%
%ADD22C,0.0512*%
%ADD23C,0.0240*%
%ADD24C,0.0124*%

%LPD*%
D10*
X2690000Y3370000D02*
G01*
X2690000Y3683310D01*
X2695000Y3688310D01*
D11*
X1349399Y3730000D02*
G01*
X1349399Y3845599D01*
X1150000Y4045000D01*
X785000Y4045000D01*
X625000Y3885000D01*
X625000Y2655599D01*
X665599Y2615000D01*
D10*
X820000Y2405000D02*
G01*
X815000Y2410000D01*
X755000Y2410000D01*
X670000Y2325000D01*
X795000Y2478798D02*
G01*
X795000Y2453798D01*
X738798Y2453798D01*
X640000Y2355000D01*
D11*
X750000Y2090000D02*
G01*
X970000Y2310000D01*
X970000Y2327480D01*
X1570000Y2012519D02*
G01*
X1647520Y2012519D01*
X1675000Y2040000D01*
X1675000Y2125000D01*
D12*
X965000Y3336689D02*
G01*
X965000Y3340000D01*
X905000Y3400000D01*
X905000Y3405000D01*
X900000Y3410000D01*
X900000Y3796689D01*
X965000Y3861689D01*
X965000Y2792480D02*
G01*
X957520Y2792480D01*
X900000Y2850000D01*
X900000Y3271689D01*
X965000Y3336689D01*
D10*
X1270000Y2012500D02*
G01*
X1513000Y2255500D01*
X1513000Y2572300D01*
D13*
X2485000Y1830000D02*
G01*
X2485000Y1880000D01*
X2538400Y1933400D01*
X2693400Y1933400D01*
X2780000Y2020000D01*
X2780000Y2400000D01*
X2505000Y2675000D01*
X2505000Y2794899D01*
D10*
X2292200Y2794899D02*
G01*
X2292200Y2972199D01*
X2448734Y3128733D01*
X1985000Y1830000D02*
G01*
X2031899Y1783099D01*
X2107399Y1783099D01*
X2135000Y1810700D01*
X2135000Y1846199D01*
X2255000Y1966199D01*
X2255000Y2757700D01*
X2292200Y2794899D01*
X2292200Y2794899D02*
G01*
X2305000Y2794899D01*
X2230000Y3683310D02*
G01*
X2303310Y3610000D01*
X2616698Y3610000D01*
X2695000Y3688301D01*
X2385000Y3678299D02*
G01*
X2328599Y3734699D01*
X2164700Y3734699D01*
X2150000Y3720000D01*
X2150000Y3295000D01*
X2179499Y3265500D01*
X2179499Y2820300D01*
X2205000Y2794899D01*
X2085000Y1830000D02*
G01*
X2153699Y1898699D01*
X2153699Y2743600D01*
X2205000Y2794899D01*
X1905000Y2794899D02*
G01*
X1992700Y2882500D01*
X1992700Y3881500D01*
X1862200Y4011999D01*
X1862200Y4096300D01*
X1394880Y4045000D02*
G01*
X1496499Y3943380D01*
X1496499Y3226999D01*
X1718198Y3005300D01*
X1718198Y2881698D01*
X1805000Y2794899D01*
X1280000Y3306100D02*
G01*
X1327799Y3306100D01*
X1669899Y2964099D01*
X1669899Y2582399D01*
X1565000Y2477500D01*
X1570000Y2012500D02*
G01*
X1529099Y2053400D01*
X1529099Y2441599D01*
X1565000Y2477500D01*
D11*
X1485000Y1830000D02*
G01*
X1485000Y1865000D01*
X1570000Y1950000D01*
X1570000Y2012500D01*
X2575000Y2060000D02*
G01*
X2505000Y2130000D01*
X2505000Y2505100D01*
X1620000Y3346100D02*
G01*
X1780000Y3346100D01*
X1540000Y3470000D02*
G01*
X1540000Y3426100D01*
X1620000Y3346100D01*
X1620000Y3346100D02*
G01*
X1620000Y3306100D01*
X1780000Y3438299D02*
G01*
X1910000Y3438299D01*
X1780000Y3346100D02*
G01*
X1780000Y3438299D01*
X1785000Y3311100D02*
G01*
X1780000Y3316100D01*
X1780000Y3346100D01*
X1619399Y3725000D02*
G01*
X1619399Y3549400D01*
X1540000Y3470000D01*
D10*
X1599899Y3211700D02*
G01*
X1785000Y3026599D01*
X1785000Y2948899D01*
X1100000Y3861700D02*
G01*
X1051000Y3812700D01*
X1051000Y3385700D01*
X1100000Y3336700D01*
X1280000Y2943899D02*
G01*
X1220000Y2883899D01*
X1220000Y2162500D01*
X1070000Y2012500D01*
X1578900Y3188600D02*
G01*
X1734300Y3033200D01*
X1734300Y2926100D01*
X1855000Y2805399D01*
X1855000Y2719000D01*
X1947500Y2626599D01*
X705000Y2923310D02*
G01*
X772500Y2990810D01*
X772500Y3799189D01*
X835000Y3861689D01*
X705000Y3861700D02*
G01*
X756500Y3913200D01*
X1120000Y3913200D01*
X1184200Y3849000D01*
X1184200Y3505900D01*
X1622200Y3067899D01*
X1632899Y3067899D01*
X1646400Y3054400D01*
X1646400Y3044499D01*
X1702100Y2988800D01*
X1702100Y2549299D01*
X1702100Y2549299D02*
G01*
X1702100Y2407100D01*
X1622500Y2327500D01*
X1570000Y2327500D01*
X1702100Y2549299D02*
G01*
X1960799Y2549299D01*
X2005000Y2505100D01*
X1751298Y2227899D02*
G01*
X1730000Y2206601D01*
X1730000Y2105000D01*
X1805000Y2462500D02*
G01*
X1751300Y2408800D01*
X1751300Y2227899D01*
X965000Y3448299D02*
G01*
X1032500Y3380799D01*
X1032500Y3302199D01*
X1389799Y2945000D01*
X1389799Y2922199D01*
X1409799Y2902100D01*
X1409799Y2635700D01*
X1321700Y2547600D01*
X1321700Y2375799D01*
X1370000Y2327500D01*
X1805000Y2505100D02*
G01*
X1805000Y2462500D01*
D13*
X960000Y2795000D02*
G01*
X885000Y2792500D01*
X885000Y2412500D01*
X970000Y2327500D01*
D10*
X920600Y2792500D02*
G01*
X965000Y2792500D01*
D13*
X750000Y2090000D02*
G01*
X685000Y2025000D01*
X685000Y1830000D01*
D10*
X835000Y2571199D02*
G01*
X795000Y2571199D01*
X795000Y2478757D01*
X835000Y2923299D02*
G01*
X835000Y2571199D01*
X885000Y1830000D02*
G01*
X885000Y2028499D01*
X1120699Y2264200D01*
X1120699Y2850500D01*
X1261599Y2991399D01*
X1301300Y2991399D01*
X1328500Y2964299D01*
X1328500Y2855900D01*
X1265000Y2792500D01*
X1365000Y2477500D02*
G01*
X1515000Y2627500D01*
X1515000Y2855000D01*
X1620000Y2943899D01*
X1085000Y1830000D02*
G01*
X1214300Y1959299D01*
X1214300Y2036700D01*
X1415000Y2237399D01*
X1415000Y2427500D01*
X1365000Y2477500D01*
D14*
X2565000Y3053800D02*
G01*
X2565000Y3030000D01*
X2355000Y2820000D01*
X2355000Y1985000D01*
X2200000Y1830000D01*
X2185000Y1830000D01*
X2565000Y3550100D02*
G01*
X2565000Y3053800D01*
X2565000Y3053800D02*
G01*
X2591300Y3053800D01*
X2700000Y2945100D01*
D10*
X2043500Y3277500D02*
G01*
X2115000Y3349000D01*
X2115000Y3935100D01*
X2005100Y4045000D01*
X2043500Y3277500D02*
G01*
X2042500Y3276500D01*
X2042500Y2944200D01*
X2048800Y2937899D01*
X2048800Y2201399D01*
X1964399Y2116999D01*
X1964399Y1952899D01*
X2090000Y3277500D02*
G01*
X2043500Y3277500D01*
X1065000Y2477500D02*
G01*
X1029399Y2441900D01*
X1029399Y2248699D01*
X1910000Y3851700D02*
G01*
X1962600Y3799099D01*
X1962600Y3412399D01*
X1851999Y3301900D01*
X1851999Y2841199D01*
X1905000Y2337500D02*
G01*
X1905000Y2204499D01*
X1623299Y3044800D02*
G01*
X1623299Y3037600D01*
X1686000Y2974899D01*
X1686000Y2505799D01*
X1623000Y2442800D01*
X1165000Y2792500D02*
G01*
X1170399Y2787100D01*
X1170399Y2600300D01*
X1006300Y2223099D02*
G01*
X1006300Y2276999D01*
X1013299Y2284000D01*
X1013299Y2600300D01*
X1035699Y2733699D02*
G01*
X965000Y2663000D01*
X965000Y2477500D01*
X2339399Y3525000D02*
G01*
X2339399Y3446100D01*
X2240000Y3346700D01*
D15*
G01*
X2505000Y2794879D03*
G01*
X2405000Y2794879D03*
G01*
X2305000Y2794879D03*
G01*
X2205000Y2794879D03*
G01*
X2105000Y2794879D03*
G01*
X2005000Y2794879D03*
G01*
X1905000Y2794879D03*
G01*
X1805000Y2794879D03*
G01*
X2505000Y2505120D03*
G01*
X2405000Y2505120D03*
G01*
X2305000Y2505120D03*
G01*
X2205000Y2505120D03*
G01*
X2105000Y2505120D03*
G01*
X2005000Y2505120D03*
G01*
X1905000Y2505120D03*
D16*
G01*
X1805000Y2505120D03*
D17*
G01*
X685000Y1830000D03*
G01*
X785000Y1830000D03*
G01*
X885000Y1830000D03*
G01*
X985000Y1830000D03*
G01*
X1085000Y1830000D03*
G01*
X1185000Y1830000D03*
G01*
X1285000Y1830000D03*
G01*
X1385000Y1830000D03*
G01*
X1485000Y1830000D03*
G01*
X1585000Y1830000D03*
G01*
X1685000Y1830000D03*
G01*
X1785000Y1830000D03*
G01*
X1885000Y1830000D03*
G01*
X1985000Y1830000D03*
G01*
X2085000Y1830000D03*
G01*
X2185000Y1830000D03*
G01*
X2285000Y1830000D03*
G01*
X2385000Y1830000D03*
G01*
X2485000Y1830000D03*
D18*
G01*
X2585000Y1830000D03*
D19*
G01*
X1805000Y2022519D03*
D20*
G01*
X1905000Y2022519D03*
G01*
X2005000Y2022519D03*
G01*
X2105000Y2022519D03*
G01*
X2205000Y2022519D03*
G01*
X2305000Y2022519D03*
G01*
X2405000Y2022519D03*
G01*
X1805000Y2337480D03*
G01*
X1905000Y2337480D03*
G01*
X2005000Y2337480D03*
G01*
X2105000Y2337480D03*
G01*
X2205000Y2337480D03*
G01*
X2305000Y2337480D03*
G01*
X2405000Y2337480D03*
D19*
G01*
X970000Y2012519D03*
D20*
G01*
X1070000Y2012519D03*
G01*
X1170000Y2012519D03*
G01*
X1270000Y2012519D03*
G01*
X1370000Y2012519D03*
G01*
X1470000Y2012519D03*
G01*
X1570000Y2012519D03*
G01*
X970000Y2327480D03*
G01*
X1070000Y2327480D03*
G01*
X1170000Y2327480D03*
G01*
X1270000Y2327480D03*
G01*
X1370000Y2327480D03*
G01*
X1470000Y2327480D03*
G01*
X1570000Y2327480D03*
D19*
G01*
X965000Y2477519D03*
D20*
G01*
X1065000Y2477519D03*
G01*
X1165000Y2477519D03*
G01*
X1265000Y2477519D03*
G01*
X1365000Y2477519D03*
G01*
X1465000Y2477519D03*
G01*
X1565000Y2477519D03*
G01*
X965000Y2792480D03*
G01*
X1065000Y2792480D03*
G01*
X1165000Y2792480D03*
G01*
X1265000Y2792480D03*
G01*
X1365000Y2792480D03*
G01*
X1465000Y2792480D03*
G01*
X1565000Y2792480D03*
D21*
G01*
X2240000Y3346689D03*
G01*
X2240000Y2933310D03*
G01*
X2375000Y3346689D03*
G01*
X2375000Y2933310D03*
D13*
G01*
X750000Y2090000D03*
G01*
X750000Y2290000D03*
D17*
G01*
X2090000Y3277480D03*
G01*
X2090000Y2962519D03*
G01*
X1945000Y3282480D03*
G01*
X1945000Y2967519D03*
D21*
G01*
X835000Y3448310D03*
G01*
X835000Y3861689D03*
G01*
X705000Y3448310D03*
G01*
X705000Y3861689D03*
G01*
X965000Y3448310D03*
G01*
X965000Y3861689D03*
G01*
X1100000Y3448310D03*
G01*
X1100000Y3861689D03*
G01*
X965000Y3336689D03*
G01*
X965000Y2923310D03*
G01*
X835000Y3336689D03*
G01*
X835000Y2923310D03*
G01*
X705000Y3336689D03*
G01*
X705000Y2923310D03*
G01*
X1100000Y3336689D03*
G01*
X1100000Y2923310D03*
G01*
X1910000Y3438310D03*
G01*
X1910000Y3851689D03*
G01*
X1780000Y3438310D03*
G01*
X1780000Y3851689D03*
D17*
G01*
X1450000Y2943899D03*
G01*
X1450000Y3306100D03*
G01*
X1280000Y2943899D03*
G01*
X1280000Y3306100D03*
G01*
X1620000Y2943899D03*
G01*
X1620000Y3306100D03*
G01*
X1785000Y2948899D03*
G01*
X1785000Y3311100D03*
D21*
G01*
X2695000Y4101689D03*
G01*
X2695000Y3688310D03*
G01*
X2230000Y3683310D03*
G01*
X2230000Y4096689D03*
G01*
X2545000Y3683310D03*
G01*
X2545000Y4096689D03*
G01*
X2385000Y4091689D03*
G01*
X2385000Y3678310D03*
D22*
G01*
X1270630Y3730000D03*
G01*
X1349369Y3730000D03*
G01*
X2339369Y3525000D03*
G01*
X2260630Y3525000D03*
G01*
X1540630Y3725000D03*
G01*
X1619369Y3725000D03*
G01*
X744369Y2615000D03*
G01*
X665630Y2615000D03*
D13*
G01*
X2575000Y2260000D03*
G01*
X2575000Y2060000D03*
G01*
X1340000Y3470000D03*
G01*
X1540000Y3470000D03*
D21*
G01*
X1394880Y4045000D03*
G01*
X2005119Y4045000D03*
G01*
X679879Y4045000D03*
G01*
X1290119Y4045000D03*
G01*
X2700000Y2334879D03*
G01*
X2700000Y2945120D03*
G01*
X2565000Y2939879D03*
G01*
X2565000Y3550120D03*
D13*
G01*
X1675000Y2125000D03*
G01*
X955000Y2170000D03*
G01*
X865000Y2305000D03*
D23*
G01*
X1035699Y2733699D03*
G01*
X1170399Y2600300D03*
G01*
X1013299Y2600300D03*
G01*
X1006300Y2223099D03*
G01*
X1623299Y3044800D03*
G01*
X1623000Y2442800D03*
G01*
X1029399Y2248699D03*
G01*
X1905000Y2204499D03*
G01*
X1851999Y2841199D03*
G01*
X835000Y2571199D03*
G01*
X1751300Y2227899D03*
G01*
X1730000Y2105000D03*
G01*
X1947500Y2626599D03*
G01*
X1578900Y3188600D03*
G01*
X1599899Y3211700D03*
G01*
X1513000Y2572300D03*
G01*
X1862200Y4096300D03*
G01*
X1964399Y1952899D03*
G01*
X820000Y2405000D03*
G01*
X795000Y2478760D03*
G01*
X640000Y2355000D03*
G01*
X670000Y2325000D03*
G01*
X2448729Y3128730D03*
G01*
X2690000Y3370000D03*
M02*
